<?xml version="1.0" encoding="utf-8"?>

<!--
 ~   Copyright (c) WSO2 Inc. (http://wso2.com) All Rights Reserved.
 ~
 ~   Licensed under the Apache License, Version 2.0 (the "License");
 ~   you may not use this file except in compliance with the License.
 ~   You may obtain a copy of the License at
 ~
 ~        http://www.apache.org/licenses/LICENSE-2.0
 ~
 ~   Unless required by applicable law or agreed to in writing, software
 ~   distributed under the License is distributed on an "AS IS" BASIS,
 ~   WITHOUT WARRANTIES OR CONDITIONS OF ANY KIND, either express or implied.
 ~   See the License for the specific language governing permissions and
 ~   limitations under the License.
-->

<svg version="1.1" id="aggregation" xmlns="http://www.w3.org/2000/svg" xmlns:xlink="http://www.w3.org/1999/xlink" x="0px"
	 y="0px" viewBox="0 0 14 14" style="enable-background:new 0 0 14 14;" xml:space="preserve">
<style type="text/css">
	.st0{fill:none;stroke:#000000;stroke-width:0.5;stroke-miterlimit:10;}
</style>
<path d="M0,0v3.5h3.5V0H0z M3,3H0.5V0.5H3V3z"/>
<path d="M0,5.3000002v3.5h3.5v-3.5H0z M3,8.1999998H0.5V5.8000002H3V8.1999998z"/>
<path d="M10.5,5.2999878v3.5H14v-3.5H10.5z M13.5,8.2999878H11v-2.5h2.5V8.2999878z"/>
<path d="M0,10.5V14h3.5v-3.5H0z M3,13.5H0.5V11H3V13.5z"/>
<line class="st0" x1="4.1999998" y1="7" x2="9.5" y2="7"/>
<polyline class="st0" points="8.1999998,8.6999998 9.8000002,7 8.1999998,5.3000002 "/>
</svg>
