<?xml version="1.0" encoding="utf-8"?>
<!-- Generator: Adobe Illustrator 22.0.1, SVG Export Plug-In . SVG Version: 6.00 Build 0)  -->
<svg version="1.1" id="Layer_1" xmlns="http://www.w3.org/2000/svg" xmlns:xlink="http://www.w3.org/1999/xlink" x="0px" y="0px"
	 viewBox="0 0 14 14" style="enable-background:new 0 0 14 14;" xml:space="preserve">
<style type="text/css">
	.st0{fill:#0DBCD4;}
	.st1{fill:#EF4136;}
</style>
<path class="st0" d="M14,8.9869995l-3.2886353,3.3007202l-0.8922119-0.8922119l0.7839966-0.7897339H0V9.388916h11.4355469V8.9185791
	H0V7.7017212h10.9303589l-1.097229-1.097229l0.8922119-0.8922119L14,8.9869995z"/>
<g>
	<path class="st1" d="M4.5167274,0.3369622c-2.3403986,0-4.2441087,1.924583-4.2441087,4.2907791
		s1.9037101,4.2908378,4.2441087,4.2908378c2.3403397,0,4.2440491-1.9246416,4.2440491-4.2908378
		S6.8570671,0.3369622,4.5167274,0.3369622z M4.5167274,7.6669111c-1.6553466,0-3.001822-1.3633609-3.001822-3.0391698
		s1.3464752-3.03917,3.001822-3.03917s3.0017629,1.3633611,3.0017629,3.03917S6.1720738,7.6669111,4.5167274,7.6669111z"/>
	<rect x="3.8894861" y="2.1692588" class="st1" width="1.2687882" height="3.2922826"/>
	<rect x="3.8749454" y="5.9737473" class="st1" width="1.2833289" height="1.2941171"/>
</g>
</svg>
