<?xml version="1.0" encoding="utf-8"?>

<!--
 ~   Copyright (c) WSO2 Inc. (http://wso2.com) All Rights Reserved.
 ~
 ~   Licensed under the Apache License, Version 2.0 (the "License");
 ~   you may not use this file except in compliance with the License.
 ~   You may obtain a copy of the License at
 ~
 ~        http://www.apache.org/licenses/LICENSE-2.0
 ~
 ~   Unless required by applicable law or agreed to in writing, software
 ~   distributed under the License is distributed on an "AS IS" BASIS,
 ~   WITHOUT WARRANTIES OR CONDITIONS OF ANY KIND, either express or implied.
 ~   See the License for the specific language governing permissions and
 ~   limitations under the License.
-->

<svg version="1.1" id="filter-query" xmlns="http://www.w3.org/2000/svg" xmlns:xlink="http://www.w3.org/1999/xlink" x="0px" y="0px"
	 viewBox="0 0 14 14" style="enable-background:new 0 0 14 14;" xml:space="preserve">
<path d="M10.4031982,8.0177689c-1.5518618,0-2.8099484,1.2580872-2.8099484,2.8100042s1.2580867,2.8099489,2.8099484,2.8099489
	c1.551918,0,2.8100042-1.2580309,2.8100042-2.8099489S11.9551163,8.0177689,10.4031982,8.0177689z M10.6559229,12.7032852h-0.629652
	v-0.591754h0.629652V12.7032852z M11.3353119,10.5764322c-0.1244259,0.1837339-0.2814932,0.3517561-0.4711466,0.5041761
	c-0.096487,0.084425-0.157012,0.1648674-0.1815758,0.2410498c-0.0245647,0.0761824-0.0368471,0.1879387-0.0368471,0.335269
	h-0.6169271c0.0016594-0.242157,0.0295992-0.4152689,0.0837622-0.5193901
	c0.0542183-0.1039553,0.1744394-0.2347431,0.3606625-0.3921976c0.1318941-0.128686,0.236846-0.251894,0.314743-0.3695698
	s0.1168461-0.2476339,0.1168461-0.3898191c0-0.164259-0.0444813-0.2916727-0.1333332-0.3822393
	c-0.0889063-0.0906219-0.2152691-0.1359329-0.379528-0.1359329c-0.1405249,0-0.2599163,0.0385609-0.3581181,0.1155739
	C9.935648,9.6604195,9.8865747,9.7742777,9.8865747,9.924983H9.2922754L9.2846413,9.9097128
	C9.2795506,9.6083584,9.3807402,9.373394,9.5881529,9.2049294c0.2074127-0.1684637,0.4753513-0.2527237,0.8038149-0.2527237
	c0.3553514,0,0.6326399,0.0906219,0.8315878,0.2717562c0.1989479,0.1811886,0.2984219,0.4326401,0.2984219,0.7543535
	C11.5219774,10.1933632,11.4597368,10.3926992,11.3353119,10.5764322z"/>
<g>
	<path d="M5.2999878,14l2.4224854-1.5919189c-0.2748413-0.4650879-0.4432373-1.0009155-0.4432373-1.5803223
		c0-1.1366577,0.6132202-2.1218262,1.520752-2.668396V7h-3.5V14z"/>
	<polygon points="0,0 0,1.2000122 5.2999878,6.5 8.7999878,6.5 14,1.2000122 14,0 	"/>
</g>
</svg>
