<?xml version="1.0" encoding="utf-8"?>

<!--
 ~   Copyright (c) WSO2 Inc. (http://wso2.com) All Rights Reserved.
 ~
 ~   Licensed under the Apache License, Version 2.0 (the "License");
 ~   you may not use this file except in compliance with the License.
 ~   You may obtain a copy of the License at
 ~
 ~        http://www.apache.org/licenses/LICENSE-2.0
 ~
 ~   Unless required by applicable law or agreed to in writing, software
 ~   distributed under the License is distributed on an "AS IS" BASIS,
 ~   WITHOUT WARRANTIES OR CONDITIONS OF ANY KIND, either express or implied.
 ~   See the License for the specific language governing permissions and
 ~   limitations under the License.
-->

<svg version="1.1" id="join-query" xmlns="http://www.w3.org/2000/svg" xmlns:xlink="http://www.w3.org/1999/xlink" x="0px" y="0px"
	 viewBox="0 0 14 14" style="enable-background:new 0 0 14 14;" xml:space="preserve">
<path d="M8.8742447,8.3716621c-1.4402175,0-2.6077952,1.1675777-2.6077952,2.6078472s1.1675777,2.6077948,2.6077952,2.6077948
	c1.4402695,0,2.6078472-1.1675262,2.6078472-2.6077948S10.3145142,8.3716621,8.8742447,8.3716621z M9.1087875,12.7200928H8.5244341
	v-0.5491819h0.5843534V12.7200928z M9.7392998,10.7462502c-0.1154737,0.170516-0.2612419,0.3264494-0.4372511,0.4679041
	c-0.0895452,0.078352-0.1457157,0.1530066-0.1685133,0.2237082c-0.0227966,0.0707016-0.0341959,0.1744184-0.0341959,0.3111486
	H8.5267954c0.0015402-0.2247353,0.0274696-0.3853922,0.0777359-0.4820232
	c0.0503178-0.0964766,0.16189-0.2178555,0.3347158-0.3639822c0.122406-0.1194277,0.2198067-0.2337723,0.2921-0.3429823
	s0.1084404-0.2298193,0.1084404-0.3617744c0-0.1524429-0.0412817-0.27069-0.1237411-0.3547411
	C9.1335354,9.7594051,9.016264,9.7173548,8.863822,9.7173548c-0.1304159,0-0.2412176,0.0357866-0.3323545,0.1072588
	c-0.091136,0.0715227-0.1366787,0.1771898-0.1366787,0.3170528H7.8432441l-0.0070858-0.0141706
	C7.8314347,9.8478212,7.925344,9.6297607,8.117835,9.4734154C8.3103266,9.317071,8.5589886,9.2388735,8.863822,9.2388735
	c0.3297863,0,0.5871258,0.0841026,0.7717619,0.2522049c0.1846352,0.1681538,0.2769527,0.401515,0.2769527,0.7000847
	C9.9125366,10.3907394,9.8547745,10.5757341,9.7392998,10.7462502z"/>
<path d="M11.4436646,4.9070435c-0.6313477-0.0893555-1.2374878,0.2197876-1.5358276,0.7879639
	C9.8751221,5.7573242,9.8404541,5.7806396,9.7692871,5.7805786C9.4658813,5.7802734,9.1624756,5.7803345,8.8590698,5.7801514
	C8.7576294,5.7473755,8.6696777,5.6864624,8.595459,5.5955811C8.5315552,5.5172729,8.4638672,5.4388428,8.4172363,5.3503418
	c-0.1603394-0.3040771-0.321167-0.6083984-0.465332-0.9202271C7.645752,3.7678833,7.3396606,3.1066284,6.8707886,2.5379639
	c-0.5327148-0.6461182-1.2012329-1.06604-2.0316162-1.2136841C4.7744141,1.3128052,4.7339478,1.2874146,4.7036743,1.223938
	C4.4191895,0.62677,3.7646484,0.288208,3.1124878,0.3965454C2.2347412,0.5423584,1.6824341,1.3929443,1.904541,2.256958
	c0.1834106,0.7132568,0.9354248,1.2104492,1.6572266,1.0927124c0.4676514-0.0762939,0.8203125-0.3285522,1.0775757-0.7203369
	c0.02948-0.0449219,0.048645-0.0803223,0.1160889-0.0629883c0.3676147,0.0945435,0.6882935,0.2698364,0.9612427,0.5344849
	C6.0164795,3.3914795,6.2415771,3.736145,6.4276123,4.1049194c0.2566528,0.508667,0.4986572,1.0247192,0.7469482,1.5376587
	C7.1956787,5.6861572,7.2171021,5.7300415,7.2411499,5.77948C5.8114014,5.7791138,4.3816528,5.7792358,2.9519043,5.7802124
	c-0.0685425,0.000061-0.1051025-0.017334-0.1382446-0.083374c-0.2926025-0.583374-0.9243164-0.8950195-1.581543-0.786377
	c-0.6098633,0.1008301-1.1201172,0.617981-1.2145996,1.2310791c-0.012146,0.0789185-0.017395,0.1569824-0.017395,0.2340088
	C0,6.3818359,0.000061,6.3881226,0,6.3944092C0.000061,6.4006958,0,6.4069824,0.0001221,6.413269
	c0,0.0769653,0.005249,0.1550293,0.017395,0.2339478C0.1119995,7.260376,0.6222534,7.7775269,1.2321167,7.8783569
	c0.6572266,0.1086426,1.2889404-0.203064,1.581543-0.786377c0.0331421-0.06604,0.0697021-0.0834351,0.1382446-0.083374
	c1.4297485,0.0009766,2.8594971,0.0010986,4.2892456,0.0007324C7.2171021,7.0587158,7.1956787,7.1026611,7.1745605,7.1462402
	c-0.248291,0.5128784-0.4902954,1.0289307-0.7469482,1.5376587C6.2415771,9.0526733,6.0164795,9.3973389,5.7166748,9.6879272
	c-0.2729492,0.2646484-0.5936279,0.4400024-0.9612427,0.5344849c-0.0674438,0.017334-0.0866089-0.0180054-0.1160889-0.0629272
	c-0.2572632-0.3917847-0.6099243-0.644043-1.0775757-0.7203369C2.8399658,9.3214111,2.0879517,9.8186035,1.904541,10.5318604
	C1.6824341,11.395874,2.2347412,12.24646,3.1124878,12.3922729c0.6521606,0.1083374,1.3067017-0.2302246,1.5911865-0.8273926
	c0.0302734-0.0634766,0.0707397-0.0888672,0.135498-0.1004028c0.4212646-0.0748901,0.8001099-0.2211304,1.1414185-0.4301147
	c-0.0003662-0.0186768-0.0055542-0.0360718-0.0055542-0.0548706c0-1.302063,0.8640747-2.390625,2.0456543-2.7567749
	c0.126709-0.2640381,0.2598877-0.5251465,0.3965454-0.7842407c0.0466309-0.088562,0.1143188-0.1669922,0.1782227-0.2452393
	C8.6696777,7.102356,8.7576294,7.0414429,8.8590698,7.008667c0.3034058-0.0002441,0.6068115-0.0001831,0.9102173-0.0004272
	c0.071167-0.000061,0.105835,0.0232544,0.1385498,0.0855713c0.2983398,0.5681763,0.90448,0.8773193,1.5358276,0.7879639
	c0.7453003-0.1054077,1.2803345-0.7554932,1.2762451-1.4873657C12.723999,5.6625366,12.1889648,5.0124512,11.4436646,4.9070435z
	 M3.3573608,2.6062622C2.9490356,2.6033325,2.6292114,2.2788086,2.630249,1.8685303
	c0.0009766-0.401001,0.3352661-0.7327271,0.7373657-0.7316895c0.4122314,0.0010376,0.7301636,0.3258057,0.7290649,0.744812
	C4.0955811,2.2877197,3.7675171,2.6092529,3.3573608,2.6062622z M1.4973755,7.1183472
	c-0.4029541,0.0009155-0.7331543-0.3234863-0.7412109-0.723938c0.0080566-0.4004517,0.3382568-0.7248535,0.7412109-0.723938
	c0.3972778,0.0009155,0.72229,0.3253174,0.7296753,0.723938C2.2196655,6.7930298,1.8946533,7.1173706,1.4973755,7.1183472z
	 M3.3676147,11.6519775c-0.4020996,0.0009766-0.7363892-0.3307495-0.7373657-0.7316895
	c-0.0010376-0.4102783,0.3187866-0.7348022,0.7271118-0.737793c0.4101563-0.0029297,0.7382202,0.3186035,0.7393188,0.7246704
	C4.0977783,11.3261719,3.7798462,11.6509399,3.3676147,11.6519775z M11.2279663,7.1183472
	c-0.399292,0.0001831-0.7317505-0.3268433-0.7385864-0.723938c0.0068359-0.3971558,0.3392944-0.7241211,0.7385864-0.723938
	s0.7282715,0.3261719,0.7368774,0.723938C11.9562378,6.7921753,11.6272583,7.118103,11.2279663,7.1183472z"/>
</svg>
