<?xml version="1.0" encoding="utf-8"?>

<!--
 ~   Copyright (c) WSO2 Inc. (http://wso2.com) All Rights Reserved.
 ~
 ~   Licensed under the Apache License, Version 2.0 (the "License");
 ~   you may not use this file except in compliance with the License.
 ~   You may obtain a copy of the License at
 ~
 ~        http://www.apache.org/licenses/LICENSE-2.0
 ~
 ~   Unless required by applicable law or agreed to in writing, software
 ~   distributed under the License is distributed on an "AS IS" BASIS,
 ~   WITHOUT WARRANTIES OR CONDITIONS OF ANY KIND, either express or implied.
 ~   See the License for the specific language governing permissions and
 ~   limitations under the License.
-->

<svg version="1.1" id="mapping" xmlns="http://www.w3.org/2000/svg" xmlns:xlink="http://www.w3.org/1999/xlink" x="0px" y="0px"
	 viewBox="0 0 14 14" style="enable-background:new 0 0 14 14;" xml:space="preserve">
<path d="M10.5,0v3.5H14V0H10.5z M13.5,3H11V0.5h2.5V3z"/>
<path class="st0" d="M3.7,9.1000004"/>
<g>
	<path d="M12.3000002,11.6000004L13.1999998,13.5h-1.8999996L12.3000002,11.6000004 M12.3000002,10.5L10.5,14H14L12.3000002,10.5
		L12.3000002,10.5z"/>
</g>
<polygon points="10.5300293,2.0299683 8.5700073,4.0700073 8.25,3.7699585 9.8099976,2.1599731 9.3900146,2.1599731 
	9.3900146,1.9199829 9.3900146,1.9099731 9.3900146,1.7799683 9.7000122,1.7799683 8.2700195,0.289978 8.5900269,-0.0100098 "/>
<path d="M8.2600098,2.0999756L8.210022,1.9799805c0.2099609-0.0899658,0.4400024-0.1300049,0.6599731-0.1699829l0.0100098,0.1400146
	l0.0299683,0.2399902C8.7199707,2.2199707,8.5300293,2.25,8.3599854,2.3299561L8.2600098,2.0999756z"/>
<path d="M7.8300171,2.3599854l0.1599731,0.1900024C7.8499756,2.6699829,7.7199707,2.8099976,7.6400146,2.9799805
	L7.4199829,2.8399658L7.3200073,2.7799683c0.0999756-0.2000122,0.25-0.3800049,0.4299927-0.5199585L7.8300171,2.3599854z"/>
<path d="M7.210022,3.3099976l0.2299805,0.0899658C7.3900146,3.5899658,7.3200073,3.7799683,7.2999878,3.9799805l-0.25-0.0499878
	L6.9299927,3.9099731c0.0200195-0.2099609,0.1000366-0.4199829,0.1600342-0.6400146L7.210022,3.3099976z"/>
<path d="M6.8099976,5.5599976L7.039978,5.6400146C6.9799805,5.8699951,6.8599854,6.0700073,6.7399902,6.2799683L6.539978,6.1400146
	L6.4299927,6.0700073c0.0900269-0.1799927,0.2000122-0.3500366,0.25-0.5500488L6.8099976,5.5599976z"/>
<path d="M7.0100098,4.4500122l0.2199707,0.0199585C7.210022,4.6699829,7.2000122,4.8699951,7.1599731,5.1099854L6.9299927,5.0799561
	L6.789978,5.0599976c0.0300293-0.1500244,0.0400391-0.3200073,0.0599976-0.4800415
	c0-0.0499878,0.0100098-0.0999756,0.0100098-0.1499634l0.1199951,0.0100098L7.0100098,4.4500122z"/>
<path d="M6.2000122,6.539978l0.1699829,0.1699829C6.2000122,6.8800049,6.0100098,7.0100098,5.8099976,7.1300049L5.6900024,6.9099731
	L5.6300049,6.7999878c0.1699829-0.1099854,0.3399658-0.2200317,0.4799805-0.3599854L6.2000122,6.539978z"/>
<path d="M5.2299805,7.1300049l0.0800171,0.2199707c-0.210022,0.0800171-0.4299927,0.1400146-0.6500244,0.1799927
	l-0.039978-0.2299805L4.5900269,7.1699829C4.789978,7.1199951,4.9899902,7.0700073,5.1799927,7L5.2299805,7.1300049z"/>
<path d="M4.1099854,7.3800049L4.0999756,7.2399902C3.9099731,7.2600098,3.6699829,7.2600098,3.4699707,7.2600098V7.1900024
	V5.2699585H0v3.460022h3.4699707V7.6300049c0.2300415,0.0100098,0.4500122,0,0.6700439-0.0200195L4.1099854,7.3800049z
	 M2.9699707,8.2299805H0.5v-2.460022h2.4699707V8.2299805z"/>
<path d="M12.2700195,5.269989c-0.960022,0-1.7399902,0.7700195-1.7399902,1.7300415
	c0,0.9599609,0.7799683,1.7299805,1.7399902,1.7299805C13.2199707,8.730011,14,7.9599915,14,7.0000305
	C14,6.0400085,13.2199707,5.269989,12.2700195,5.269989z M12.2700195,8.230011
	c-0.6799927,0-1.2399902-0.5499878-1.2399902-1.2299805s0.5599976-1.2300415,1.2399902-1.2300415S13.5,6.3200378,13.5,7.0000305
	S12.9500122,8.230011,12.2700195,8.230011z"/>
</svg>
