<?xml version="1.0" encoding="utf-8"?>

<!--
 ~   Copyright (c) WSO2 Inc. (http://wso2.com) All Rights Reserved.
 ~
 ~   Licensed under the Apache License, Version 2.0 (the "License");
 ~   you may not use this file except in compliance with the License.
 ~   You may obtain a copy of the License at
 ~
 ~        http://www.apache.org/licenses/LICENSE-2.0
 ~
 ~   Unless required by applicable law or agreed to in writing, software
 ~   distributed under the License is distributed on an "AS IS" BASIS,
 ~   WITHOUT WARRANTIES OR CONDITIONS OF ANY KIND, either express or implied.
 ~   See the License for the specific language governing permissions and
 ~   limitations under the License.
-->

<svg version="1.1" id="pattern-query" xmlns="http://www.w3.org/2000/svg" xmlns:xlink="http://www.w3.org/1999/xlink" x="0px"
	 y="0px" viewBox="0 0 14 14" style="enable-background:new 0 0 14 14;" xml:space="preserve">
<path d="M0.9622803,7.0150757H1.822937v5.1682129H0.9622803V7.0150757z M11.1349487,8.333313
	c0.3986206,0,0.7741699,0.0910034,1.1150513,0.2454834V8.0951538H7.0817871v0.8606567h2.3441162
	C9.8934937,8.5726929,10.4832764,8.333313,11.1349487,8.333313z M8.4237671,11.0445557
	c0-0.2796021,0.0545044-0.5440063,0.1331177-0.7977905H7.0817871v0.8606567h1.3483276
	C8.4296265,11.0859985,8.4237671,11.0661011,8.4237671,11.0445557z M12.25,7.0192871H7.0817871v0.8606567H12.25V7.0192871z
	 M9.1820068,9.1709595H7.0817871v0.8606567h1.5418701C8.7540894,9.7087402,8.9448242,9.4181519,9.1820068,9.1709595z
	 M12.25,1.0980225h-0.8606567v5.1682129H12.25V1.0980225z M7.9467163,1.0980225H7.0860596v5.1682129h0.8606567V1.0980225z
	 M10.0983276,1.0980225H9.2376709v5.1682129h0.8606567V1.0980225z M9.022522,1.0980225H8.1618652v5.1682129H9.022522V1.0980225z
	 M11.1741943,1.0980225h-0.8606567v5.1682129h0.8606567V1.0980225z M0.9622803,4.1103516h5.1681519V3.2496948H0.9622803V4.1103516z
	 M0.9622803,5.1861572h5.1681519V4.3255005H0.9622803V5.1861572z M0.9622803,3.0345459h5.1681519V2.1738892H0.9622803V3.0345459z
	 M8.4517822,11.3226318H7.0817871v0.8606567h1.6003418C8.5582275,11.9170532,8.4832764,11.6273193,8.4517822,11.3226318z
	 M0.9622803,1.9586792h5.1681519V1.0980225H0.9622803V1.9586792z M3.1138916,12.1832886h0.8606567V7.0150757H3.1138916V12.1832886z
	 M2.0380859,12.1832886h0.8606567V7.0150757H2.0380859V12.1832886z M4.1897583,12.1832886H5.050415V7.0150757H4.1897583V12.1832886z
	 M5.265564,12.1832886h0.8606567V7.0150757H5.265564V12.1832886z M0.9622803,6.2620239h5.1681519V5.4013672H0.9622803V6.2620239z
	 M13.5736475,11.0445719c0,1.3468533-1.0918474,2.438653-2.4386997,2.438653c-1.3468046,0-2.438653-1.0917997-2.438653-2.438653
	s1.0918484-2.4386997,2.438653-2.4386997C12.4818001,8.6058722,13.5736475,9.6977196,13.5736475,11.0445719z M11.3542776,12.158699
	h-0.5464525v0.5135622h0.5464525V12.158699z M12.105895,10.3073587c0-0.2792034-0.0863304-0.4974289-0.2589903-0.6546764
	c-0.1726599-0.1571989-0.4133081-0.2358465-0.7217045-0.2358465c-0.2850618,0-0.5175953,0.0731258-0.6976013,0.2193298
	s-0.2678242,0.3501205-0.2634068,0.6116552l0.0066261,0.0132523h0.51577c0-0.1307917,0.0425892-0.2296047,0.1278152-0.2964888
	c0.0852251-0.0668364,0.1888399-0.1003027,0.3107967-0.1003027c0.1425552,0,0.2522202,0.0393238,0.3293791,0.1179714
	c0.0771112,0.0785999,0.115715,0.1891775,0.115715,0.3317318c0,0.1233969-0.033802,0.2361832-0.1014071,0.3383093
	c-0.0676041,0.1021271-0.1586876,0.2090549-0.2731533,0.3207369c-0.1616173,0.1366491-0.2659521,0.2501545-0.3130064,0.340374
	c-0.0470057,0.0903635-0.0712538,0.2406006-0.0726938,0.4507589h0.535409c0-0.127862,0.0106592-0.2248507,0.0319777-0.290967
	c0.0213184-0.0661154,0.0738459-0.1359291,0.1575832-0.209199c0.1645937-0.1322794,0.3009062-0.2780991,0.4088907-0.4375553
	C12.0518789,10.6669874,12.105895,10.4939909,12.105895,10.3073587z"/>
</svg>
