<?xml version="1.0" encoding="utf-8"?>

<!--
 ~   Copyright (c) WSO2 Inc. (http://wso2.com) All Rights Reserved.
 ~
 ~   Licensed under the Apache License, Version 2.0 (the "License");
 ~   you may not use this file except in compliance with the License.
 ~   You may obtain a copy of the License at
 ~
 ~        http://www.apache.org/licenses/LICENSE-2.0
 ~
 ~   Unless required by applicable law or agreed to in writing, software
 ~   distributed under the License is distributed on an "AS IS" BASIS,
 ~   WITHOUT WARRANTIES OR CONDITIONS OF ANY KIND, either express or implied.
 ~   See the License for the specific language governing permissions and
 ~   limitations under the License.
-->

<svg version="1.1" id="projection-query" xmlns="http://www.w3.org/2000/svg" xmlns:xlink="http://www.w3.org/1999/xlink" x="0px" y="0px"
	 viewBox="0 0 14 14" style="enable-background:new 0 0 14 14;" xml:space="preserve">
<path d="M9.3255005,6.0097046c0,0,0.0036621,0.3474121,0.0061646,0.7501221
	C7.9610596,6.8728027,6.8237915,7.772644,6.3717651,9.0161133C6.130188,9.0430298,5.8933716,9.0639648,5.6729736,9.0755615
	c-0.546875,0.0348511-3.6015015,0.1682129-5.1028442-1.078125c-0.019165-0.2041626,0-1.9845581,0-1.9845581
	S1.5897217,6.8272095,4.8482056,6.894104C8.2647095,6.8571777,9.3255005,6.0097046,9.3255005,6.0097046z M5.6729736,6.1657104
	c1.161438-0.0612183,2.711792-0.300354,3.6525269-1.0812988c0.019165-0.2041626,0-1.9845581,0-1.9845581
	s-1.060791,0.8475342-4.4772949,0.8843994C1.5897217,3.9173584,0.5701294,3.1030273,0.5701294,3.1030273
	s-0.019165,1.7803955,0,1.9846191C2.0714722,6.3339233,5.1260986,6.2005615,5.6729736,6.1657104z M6.1524658,10.1937866
	c0-0.0860596,0.019165-0.166687,0.0253296-0.2511597c-0.4006958,0.0344849-0.8335571,0.0601807-1.3295898,0.0655518
	C1.5897217,9.9412231,0.5701294,9.1269531,0.5701294,9.1269531s-0.019165,1.7803345,0,1.9845581
	c1.5013428,1.2462769,4.5559692,1.1129761,5.1028442,1.078064c0.3255005-0.0171509,0.682312-0.0507813,1.046936-0.1038818
	C6.3634644,11.5413818,6.1524658,10.8930054,6.1524658,10.1937866z M0.6809082,2.2644653
	c0.1452026,0.1106567,0.3022461,0.2052002,0.4655762,0.286438c0.1646118,0.0819092,0.3356323,0.1505127,0.5095825,0.210022
	c0.173584,0.0593262,0.3501587,0.1096802,0.5279541,0.1550293c1.6482544,0.4207153,3.3919678,0.4448853,5.0593872,0.107605
	C7.9144897,2.8878174,8.5852051,2.68927,9.1563721,2.3117065C9.2229004,2.2677002,9.2905273,2.2185059,9.326355,2.1472168
	c0.0507202-0.100769,0.0255127-0.2269287-0.0370483-0.3208008C9.2266846,1.7325439,9.1321411,1.6652222,9.0368042,1.6047974
	c-0.494751-0.3135986-1.0620728-0.4950562-1.6334229-0.6242676c-1.421814-0.3215332-2.9063721-0.3361816-4.3449707-0.1014404
	C2.4547119,0.9776001,1.8511963,1.1223755,1.2958374,1.3737793C1.1595459,1.4354248,1.0261841,1.50354,0.8964844,1.5789795
	C0.7901611,1.6407471,0.6837769,1.7098999,0.6134033,1.81073C0.6044312,1.8235474,0.5962524,1.8369751,0.5888672,1.850769
	c-0.0404053,0.0755005-0.0586548,0.166687-0.0355225,0.2504883c0.0073242,0.0264893,0.0115356,0.0598145,0.0292969,0.0817261
	C0.6085205,2.2149048,0.6484375,2.2396851,0.6809082,2.2644653z M12.7408447,10.1679688
	c0,1.7120972-1.3879395,3.0999756-3.1000366,3.0999756c-1.7120361,0-3.0999756-1.3878784-3.0999756-3.0999756
	S7.928772,7.0679321,9.6408081,7.0679321C11.3529053,7.0679321,12.7408447,8.4558716,12.7408447,10.1679688z M9.9196167,11.5842285
	H9.2249756v0.652832h0.6946411V11.5842285z M10.875061,9.230835c0-0.3549194-0.1097412-0.6323242-0.3292236-0.8322144
	C10.326355,8.1987915,10.0204468,8.0988159,9.628418,8.0988159c-0.3623657,0-0.657959,0.0929565-0.8867798,0.2788086
	S8.4011841,8.8226929,8.4067993,9.1551514l0.0084229,0.0168457h0.6556396c0-0.1662598,0.0541382-0.2918701,0.1624756-0.3768921
	C9.3416748,8.710144,9.4733887,8.6676025,9.628418,8.6676025c0.1812134,0,0.3206177,0.0499878,0.4187012,0.1499634
	c0.0980225,0.0999146,0.1470947,0.2404785,0.1470947,0.4216919c0,0.1568604-0.0429688,0.3002319-0.1289063,0.4300537
	s-0.2017212,0.2657471-0.347229,0.4077148c-0.2054443,0.1737061-0.3380737,0.3179932-0.3978882,0.4326782
	c-0.0597534,0.1148682-0.0905762,0.3058472-0.0924072,0.572998h0.680603c0-0.1625366,0.0135498-0.2858276,0.0406494-0.369873
	s0.0938721-0.1727905,0.2003174-0.2659302c0.2092285-0.1681519,0.3825073-0.3535156,0.5197754-0.5562134
	S10.875061,9.4680786,10.875061,9.230835z"/>
</svg>
