<?xml version="1.0" encoding="utf-8"?>
<!-- Generator: Adobe Illustrator 21.1.0, SVG Export Plug-In . SVG Version: 6.00 Build 0)  -->
<svg version="1.1" id="sequence" xmlns="http://www.w3.org/2000/svg" xmlns:xlink="http://www.w3.org/1999/xlink" x="0px" y="0px"
	 viewBox="0 0 14 14" style="enable-background:new 0 0 14 14;" xml:space="preserve">
<path d="M1.1610992,0.9288793h4.1799564V1.393319H1.1610992V0.9288793z M7.1988149,0.9288793h2.3221984V1.393319H7.1988149
	V0.9288793z M1.1610992,2.786638h4.1799564v0.4644396H1.1610992V2.786638z M7.1988149,2.786638h2.3221984v0.4644396H7.1988149
	V2.786638z M1.1610992,4.6443968h4.1799564v0.4644394H1.1610992V4.6443968z M7.1988149,4.6443968h2.3221984v0.4644394H7.1988149
	V4.6443968z M1.1610992,6.5021553h4.1799564v0.4644394H1.1610992V6.5021553z M1.1610992,8.3599138h4.1799564v0.4644394H1.1610992
	V8.3599138z M1.1610992,10.2176723h4.1799564v0.4644394H1.1610992V10.2176723z M2.0899785,12.0754309h0.4644396v0.4644394H2.0899785
	V12.0754309z M2.0899785,13.0043106h0.4644396V13.46875H2.0899785V13.0043106z M3.0188577,13.0043106h0.4644396V13.46875H3.0188577
	V13.0043106z M3.947737,13.0043106h0.4644396V13.46875H3.947737V13.0043106z M4.8766165,13.0043106h0.4644394V13.46875H4.8766165
	V13.0043106z M5.8054957,13.0043106h0.4644394V13.46875H5.8054957V13.0043106z M6.734375,13.0043106h0.4644399V13.46875H6.734375
	V13.0043106z M13.0043106,5.573276H13.46875v0.4644394h-0.4644394V5.573276z M13.0043106,4.6443968H13.46875v0.4644394h-0.4644394
	V4.6443968z M13.0043106,3.7155173H13.46875v0.4644396h-0.4644394V3.7155173z M13.0043106,2.786638H13.46875v0.4644396h-0.4644394
	V2.786638z M13.0043106,1.8577586H13.46875v0.4644397h-0.4644394V1.8577586z M11.1465521,1.8577586h0.4644394v0.4644397h-0.4644394
	V1.8577586z M12.0754309,1.8577586h0.4644394v0.4644397h-0.4644394V1.8577586z M7.1988149,6.5021553h2.3221984v0.4644394H7.1988149
	V6.5021553z M10.5535278,7.4535522c-1.7120361,0-3.0999756,1.3879395-3.0999756,3.1000366s1.3879395,3.0999756,3.0999756,3.0999756
	c1.7120972,0,3.1000366-1.3878784,3.1000366-3.0999756S12.265625,7.4535522,10.5535278,7.4535522z M10.8323364,12.6226807
	h-0.6946411v-0.652832h0.6946411V12.6226807z M11.5818481,10.2763062c-0.1372681,0.2026978-0.3105469,0.3880615-0.5197754,0.5562134
	c-0.1064453,0.0931396-0.1732178,0.1818848-0.2003174,0.2659302s-0.0406494,0.2073364-0.0406494,0.369873h-0.680603
	c0.0018311-0.2671509,0.0326538-0.4581299,0.0924072-0.572998c0.0598145-0.1146851,0.1924438-0.2589722,0.3978882-0.4326782
	c0.1455078-0.1419678,0.2612915-0.2778931,0.347229-0.4077148s0.1289063-0.2731934,0.1289063-0.4300537
	c0-0.1812134-0.0490723-0.3217773-0.1470947-0.4216919c-0.0980835-0.0999756-0.2374878-0.1499634-0.4187012-0.1499634
	c-0.1550293,0-0.2867432,0.0425415-0.3950806,0.1275024c-0.1083374,0.085022-0.1624756,0.2106323-0.1624756,0.3768921H9.3279419
	L9.319519,9.5407715C9.3139038,9.208313,9.4255371,8.9490967,9.6543579,8.7632446S10.178772,8.484436,10.5411377,8.484436
	c0.3920288,0,0.697937,0.0999756,0.9174194,0.2998047c0.2194824,0.1998901,0.3292236,0.4772949,0.3292236,0.8322144
	C11.7877808,9.8536987,11.7191162,10.0736084,11.5818481,10.2763062z M7.1668701,11.1465454H6.5021362V9.7532349h0.7078247
	c0.0380249-0.1591797,0.0848999-0.3146973,0.144165-0.4644165H6.5021362V7.8954468h1.8824463
	c0.2234497-0.1825562,0.4646606-0.34198,0.7296143-0.4644165H6.5021362V6.0377197h3.7155151v1.1032715
	c0.1121826-0.0109863,0.2208252-0.0338745,0.3358765-0.0338745c0.0447998,0,0.0864258,0.0114746,0.1307983,0.0131836
	l-0.0021973-0.6181641V5.805481V3.9477539V2.0900269V0.2321777C10.6821289,0.1040039,10.5783081,0,10.4498901,0H6.2699585H0.2321777
	C0.1038208,0,0,0.1040039,0,0.2321777v1.8578491v1.8577271V5.805481V7.663269v1.8577271v1.8577881
	c0,0.1281738,0.1038208,0.2322388,0.2321777,0.2322388h6.0377808h1.0198364
	C7.2405396,11.4592285,7.1948242,11.3068237,7.1668701,11.1465454z M6.5021362,0.4644775h3.7155151v1.3932495H6.5021362V0.4644775z
	 M6.5021362,2.3222046h3.7155151v1.3933105H6.5021362V2.3222046z M6.5021362,4.1799316h3.7155151v1.3933105H6.5021362V4.1799316z
	 M6.0377197,11.1465454H0.4644775V9.7532349h5.5732422V11.1465454z M6.0377197,9.2888184H0.4644775V7.8954468h5.5732422V9.2888184z
	 M6.0377197,7.4310303H0.4644775V6.0377197h5.5732422V7.4310303z M6.0377197,5.5732422H0.4644775V4.1799316h5.5732422V5.5732422z
	 M6.0377197,3.7155151H0.4644775V2.3222046h5.5732422V3.7155151z M6.0377197,1.8577271H0.4644775V0.4644775h5.5732422V1.8577271z
	 M7.9157715,8.3599243h-0.71698v0.4644165h0.3895874C7.6847534,8.6594849,7.7941895,8.5058594,7.9157715,8.3599243z
	 M13.0043106,7.4310346H13.46875V7.895474h-0.4644394V7.4310346z M13.0043106,6.5021553H13.46875v0.4644394h-0.4644394V6.5021553z
	 M7.6284928,13.0043106h0.4644399V13.46875H7.6284928V13.0043106z"/>
</svg>
