<?xml version="1.0" encoding="utf-8"?>

<!--
 ~   Copyright (c) WSO2 Inc. (http://wso2.com) All Rights Reserved.
 ~
 ~   Licensed under the Apache License, Version 2.0 (the "License");
 ~   you may not use this file except in compliance with the License.
 ~   You may obtain a copy of the License at
 ~
 ~        http://www.apache.org/licenses/LICENSE-2.0
 ~
 ~   Unless required by applicable law or agreed to in writing, software
 ~   distributed under the License is distributed on an "AS IS" BASIS,
 ~   WITHOUT WARRANTIES OR CONDITIONS OF ANY KIND, either express or implied.
 ~   See the License for the specific language governing permissions and
 ~   limitations under the License.
-->

<svg version="1.1" id="sequence-query" xmlns="http://www.w3.org/2000/svg" xmlns:xlink="http://www.w3.org/1999/xlink" x="0px" y="0px"
	 viewBox="0 0 14 14" style="enable-background:new 0 0 14 14;" xml:space="preserve">
<path d="M10.5535164,7.4535408c-1.7120361,0-3.0999756,1.3879395-3.0999756,3.1000366s1.3879395,3.0999756,3.0999756,3.0999756
	c1.7120972,0,3.1000366-1.3878784,3.1000366-3.0999756S12.2656136,7.4535408,10.5535164,7.4535408z M10.832325,12.6226692
	h-0.6946411v-0.652832h0.6946411V12.6226692z M11.5818367,10.2762947c-0.1372681,0.2026978-0.3105469,0.3880615-0.5197754,0.5562134
	c-0.1064453,0.0931396-0.1732178,0.1818848-0.2003174,0.2659302s-0.0406494,0.2073364-0.0406494,0.369873h-0.680603
	c0.0018311-0.2671509,0.0326538-0.4581299,0.0924072-0.572998c0.0598145-0.1146851,0.1924438-0.2589722,0.3978882-0.4326782
	c0.1455078-0.1419678,0.2612915-0.2778931,0.347229-0.4077148s0.1289063-0.2731934,0.1289063-0.4300537
	c0-0.1812134-0.0490723-0.3217773-0.1470947-0.4216919c-0.0980835-0.0999756-0.2374878-0.1499634-0.4187012-0.1499634
	c-0.1550293,0-0.2867432,0.0425415-0.3950806,0.1275024c-0.1083374,0.085022-0.1624756,0.2106323-0.1624756,0.3768921H9.3279305
	L9.3195076,9.54076C9.3138924,9.2083015,9.4255257,8.9490852,9.6543465,8.7632332s0.5244141-0.2788086,0.8867798-0.2788086
	c0.3920288,0,0.697937,0.0999756,0.9174194,0.2998047c0.2194824,0.1998901,0.3292236,0.4772949,0.3292236,0.8322144
	C11.7877693,9.8536873,11.7191048,10.073597,11.5818367,10.2762947z M0,3.5h1v7.9000244H0V3.5z M7.4000244,9.1713257V2.9000244h1
	v4.982666C7.9730835,8.227478,7.6235352,8.6623535,7.4000244,9.1713257z M9.2999878,7.350647V3.2000122h1v3.9326782
	C9.9499512,7.1586304,9.6131592,7.2279663,9.2999878,7.350647z M11.2000122,7.1723022V3.5999756h1V7.543457
	C11.8901367,7.3735352,11.5585327,7.2404785,11.2000122,7.1723022z M5.5999756,2.2000122h1v7.8999634h-1V2.2000122z M14,3.9000244
	v6.6535034c0-0.9463501-0.3825073-1.8026733-1-2.4254761V3.9000244H14z M3.7000122,2.7000122h1v7.8999634h-1V2.7000122z
	 M1.9000244,3.0999756h1V11h-1V3.0999756z"/>
</svg>
