<?xml version="1.0" encoding="utf-8"?>

<!--
 ~   Copyright (c) WSO2 Inc. (http://wso2.com) All Rights Reserved.
 ~
 ~   Licensed under the Apache License, Version 2.0 (the "License");
 ~   you may not use this file except in compliance with the License.
 ~   You may obtain a copy of the License at
 ~
 ~        http://www.apache.org/licenses/LICENSE-2.0
 ~
 ~   Unless required by applicable law or agreed to in writing, software
 ~   distributed under the License is distributed on an "AS IS" BASIS,
 ~   WITHOUT WARRANTIES OR CONDITIONS OF ANY KIND, either express or implied.
 ~   See the License for the specific language governing permissions and
 ~   limitations under the License.
-->

<svg version="1.1" id="trigger" xmlns="http://www.w3.org/2000/svg" xmlns:xlink="http://www.w3.org/1999/xlink" x="0px" y="0px"
	 viewBox="0 0 14 14" style="enable-background:new 0 0 14 14;" xml:space="preserve">
<path d="M7.6910586,7.939816l1.5517821,0.0217109L9.2302847,8.8184605l-1.6137328-0.022583
	C7.459342,9.0251951,7.2083993,9.1851511,6.909369,9.1851511c-0.4819183,0-0.8725886-0.3906689-0.8725886-0.8725853
	c0-0.3477254,0.2070413-0.6424379,0.5013189-0.7826881V5.3028355h0.8569374v2.3041644
	C7.5198541,7.6931901,7.6249657,7.8018327,7.6910586,7.939816z"/>
<path d="M6.9416504,3.2799683h-0.000061v1.0714111h0.000061c2.1661987,0,3.9285278,1.7623291,3.9285278,3.9285889
	c0,2.1661987-1.7623291,3.9285889-3.9285278,3.9285889c-2.1662598,0-3.9285889-1.7623901-3.9285889-3.9285889H1.9415894
	c0,2.7614136,2.2385864,5,5.000061,5c2.7614136,0,4.999939-2.2385864,4.999939-5S9.703064,3.2799683,6.9416504,3.2799683z"/>
<polygon points="0.590399,9.7232246 2.1156328,8.3120098 2.1162355,8.3218908 2.8276176,8.3130903 2.8267834,8.2847137 
	4.4018049,9.7991791 4.8950481,9.2860212 2.5017753,6.9851446 0.1068815,9.2008038 "/>
<path d="M10.7028313,3.5572612c0.4376173,0.415776,0.5848045,0.9375675,0.4942474,1.536144
	c0.1480837-0.0172505,0.2835798-0.0330667,0.4225903-0.0492773c0.1938467-1.4444032-1.1085329-2.6011379-2.4495754-2.3235834
	C9.1594419,2.8566501,9.1486473,2.9947639,9.137063,3.1427047C9.7355318,3.019618,10.2643166,3.1406245,10.7028313,3.5572612z"/>
<path d="M9.3783226,0.0974221C9.3677425,0.2315191,9.357091,0.3663693,9.3462954,0.5032995
	c1.2024622-0.0320987,2.2319498,0.3543404,3.0618877,1.2142971c0.8321266,0.8622161,1.1788988,1.9092773,1.1040497,3.104136
	c0.1411629-0.0165334,0.2736816-0.0320268,0.4113293-0.04813C14.1305351,2.1227567,11.8775339-0.0575839,9.3783226,0.0974221z"/>
<path d="M9.2715902,1.4413689C9.2610817,1.5761116,9.2505016,1.7117865,9.2393484,1.8549572
	c0.9066515-0.0697563,1.6898947,0.1825141,2.3366013,0.8027889c0.6457386,0.6193426,0.9305019,1.3916109,0.9004116,2.2860329
	c0.1439962-0.017107,0.2787743-0.0331025,0.4113293-0.0488472C12.9787865,2.8985398,11.2540312,1.253834,9.2715902,1.4413689z"/>
</svg>
