<?xml version="1.0" encoding="utf-8"?>

<!--
 ~   Copyright (c) WSO2 Inc. (http://wso2.com) All Rights Reserved.
 ~
 ~   Licensed under the Apache License, Version 2.0 (the "License");
 ~   you may not use this file except in compliance with the License.
 ~   You may obtain a copy of the License at
 ~
 ~        http://www.apache.org/licenses/LICENSE-2.0
 ~
 ~   Unless required by applicable law or agreed to in writing, software
 ~   distributed under the License is distributed on an "AS IS" BASIS,
 ~   WITHOUT WARRANTIES OR CONDITIONS OF ANY KIND, either express or implied.
 ~   See the License for the specific language governing permissions and
 ~   limitations under the License.
-->

<svg version="1.1" id="window-query" xmlns="http://www.w3.org/2000/svg" xmlns:xlink="http://www.w3.org/1999/xlink" x="0px"
	 y="0px" viewBox="0 0 14 14" style="enable-background:new 0 0 14 14;" xml:space="preserve">
<path d="M10.5535164,7.4535408c-1.7120361,0-3.0999756,1.3879395-3.0999756,3.1000366s1.3879395,3.0999756,3.0999756,3.0999756
	c1.7120972,0,3.1000366-1.3878784,3.1000366-3.0999756S12.2656136,7.4535408,10.5535164,7.4535408z M10.832325,12.6226692
	h-0.6946411v-0.652832h0.6946411V12.6226692z M11.5818367,10.2762947c-0.1372681,0.2026978-0.3105469,0.3880615-0.5197754,0.5562134
	c-0.1064453,0.0931396-0.1732178,0.1818848-0.2003174,0.2659302s-0.0406494,0.2073364-0.0406494,0.369873h-0.680603
	c0.0018311-0.2671509,0.0326538-0.4581299,0.0924072-0.572998c0.0598145-0.1146851,0.1924438-0.2589722,0.3978882-0.4326782
	c0.1455078-0.1419678,0.2612915-0.2778931,0.347229-0.4077148s0.1289063-0.2731934,0.1289063-0.4300537
	c0-0.1812134-0.0490723-0.3217773-0.1470947-0.4216919c-0.0980835-0.0999756-0.2374878-0.1499634-0.4187012-0.1499634
	c-0.1550293,0-0.2867432,0.0425415-0.3950806,0.1275024c-0.1083374,0.085022-0.1624756,0.2106323-0.1624756,0.3768921H9.3279305
	L9.3195076,9.54076C9.3138924,9.2083015,9.4255257,8.9490852,9.6543465,8.7632332s0.5244141-0.2788086,0.8867798-0.2788086
	c0.3920288,0,0.697937,0.0999756,0.9174194,0.2998047c0.2194824,0.1998901,0.3292236,0.4772949,0.3292236,0.8322144
	C11.7877693,9.8536873,11.7191048,10.073597,11.5818367,10.2762947z M9.2722778,7.3592529V0H8.6099854v7.7094116
	C8.8154297,7.5687256,9.0380859,7.4533081,9.2722778,7.3592529z M0,0h0.6622925v9.2722778H0V0z M2.5422974,3.8318481
	L2.1913452,3.480896L1.0361328,4.6361084l1.1552124,1.1552734l0.3509521-0.3509521L2.0305176,4.9285889h2.2537842V4.343689
	H2.0305176L2.5422974,3.8318481z M7.0200806,3.480896L6.6691284,3.8318481L7.1809692,4.343689H4.9271851v0.5848999h2.2537842
	L6.6691284,5.4404297l0.3509521,0.3509521L8.175354,4.6361084L7.0200806,3.480896z"/>
</svg>
