<?xml version="1.0" encoding="utf-8"?>

<!--
 * Copyright (c) 2018, WSO2 Inc. (http://www.wso2.org) All Rights Reserved.
 *
 * WSO2 Inc. licenses this file to you under the Apache License,
 * Version 2.0 (the "License"); you may not use this file except
 * in compliance with the License.
 * You may obtain a copy of the License at
 *
 *     http://www.apache.org/licenses/LICENSE-2.0
 *
 * Unless required by applicable law or agreed to in writing,
 * software distributed under the License is distributed on an
 * "AS IS" BASIS, WITHOUT WARRANTIES OR CONDITIONS OF ANY
 * KIND, either express or implied. See the License for the
 * specific language governing permissions and limitations
 * under the License.
-->

<svg version="1.1" id="filter-query" xmlns="http://www.w3.org/2000/svg"  x="0px"
	 y="0px" viewBox="0 0 14 14" style="enable-background:new 0 0 14 14;" xml:space="preserve">
<path style="fill:#FF5722" d="M10.2522249,10.5777454c0,0.2349243-0.1904907,0.425415-0.4254761,0.425415
	c-0.2349243,0-0.425415-0.1904907-0.425415-0.425415c0-0.2349854,0.1904907-0.4254761,0.425415-0.4254761
	C10.0617342,10.1522694,10.2522249,10.3427601,10.2522249,10.5777454z M11.3370028,11.1478748
	c-0.1578369,0-0.2858276,0.1279907-0.2858276,0.2858276c0,0.1578979,0.1279907,0.2858276,0.2858276,0.2858276
	c0.1578979,0,0.2858276-0.1279297,0.2858276-0.2858276C11.6228304,11.2758656,11.4949007,11.1478748,11.3370028,11.1478748z
	 M13.1350985,10.8277454c0,1.5087891-1.2231445,2.7318726-2.7319336,2.7318726c-1.508728,0-2.7318115-1.2230835-2.7318115-2.7318726
	c0-1.508728,1.2230835-2.7318726,2.7318115-2.7318726C11.9119539,8.0958729,13.1350985,9.3190174,13.1350985,10.8277454z
	 M12.0627718,11.2915516l-0.1499634-0.0172119c-0.0126343-0.0479736-0.0315552-0.09375-0.055603-0.1367798l0.0946045-0.1190796
	l-0.1937866-0.1947632l-0.1183472,0.0925903c-0.0452271-0.0265503-0.0935059-0.0467529-0.144165-0.0604248l-0.0171509-0.1497803
	h-0.2739258l-0.0194092,0.1497192c-0.052002,0.013855-0.1014404,0.0349731-0.1477661,0.0623779l-0.1226807-0.0942993
	l-0.1915894,0.1968994l0.0974731,0.1213379c-0.0239868,0.043396-0.0421753,0.0894775-0.0543823,0.1375732l-0.1242676,0.0148315
	l0.0991821-0.1000977l-0.1456909-0.1838989c0.0375366-0.0650635,0.0669556-0.1343384,0.0864258-0.2069702l0.2252197-0.0291138
	v-0.4082642l-0.2232056-0.0256958c-0.0187988-0.0713501-0.046936-0.1395264-0.0827637-0.2035522l0.1408691-0.1772461
	l-0.2884521-0.289856l-0.1761475,0.1377563c-0.0673218-0.0394897-0.1391602-0.0695801-0.2145996-0.0899658L10.037137,9.4947376
	H9.6294222L9.6005526,9.717577C9.52316,9.7382679,9.4495516,9.76964,9.3806429,9.8104725L9.1980867,9.6700916L8.9128695,9.9631824
	l0.1450806,0.180603c-0.0357056,0.0645142-0.0628052,0.1331787-0.0809326,0.2047119L8.74368,10.3763905l0.0008545,0.4089355
	l0.2398071,0.0296631c0.019165,0.0658569,0.0457764,0.1292725,0.0795898,0.1887817l-0.1513672,0.1923218l0.2897949,0.2885132
	l0.1902466-0.1502075c0.0615845,0.0354614,0.1271973,0.0631714,0.1953735,0.0827637L9.61691,11.6598377l0.4089355-0.0008545
	l0.0288696-0.2364502c0.0736694-0.019165,0.1439819-0.0476074,0.2102051-0.0849609l0.1882935,0.1473999l0.1561279-0.1575928
	l0.0005493,0.2458496l0.1611328,0.0198975c0.0128784,0.0442505,0.0307007,0.086853,0.0534668,0.1268311l-0.1016846,0.1292114
	l0.1946411,0.1938477l0.1278687-0.1008911c0.0413818,0.0238037,0.0854492,0.0424194,0.1312866,0.055603l0.0194092,0.1630249
	l0.2747803-0.0005493l0.0193481-0.1588745c0.0494995-0.0128784,0.0967407-0.0319824,0.1412964-0.0570679l0.1264648,0.098999
	l0.1933594-0.1951904l-0.0979004-0.1235352c0.0252686-0.0437622,0.0449829-0.090271,0.0580444-0.1390991l0.1513672-0.0195313
	V11.2915516z M10.6092806,11.2984486l0.000061,0.0289307l0.0324707-0.0328369L10.6092806,11.2984486z M5.2999878,7h3.5v1.1593628
	c-0.9075317,0.5465698-1.520752,1.5317383-1.520752,2.668396c0,0.5794067,0.168396,1.1152344,0.4432373,1.5803223L5.2999878,14V7z
	 M14,0v1.2000122L8.7999878,6.5h-3.5L0,1.2000122V0H14z"/>
</svg>
