<?xml version="1.0" encoding="utf-8"?>

<!--
 * Copyright (c) 2018, WSO2 Inc. (http://www.wso2.org) All Rights Reserved.
 *
 * WSO2 Inc. licenses this file to you under the Apache License,
 * Version 2.0 (the "License"); you may not use this file except
 * in compliance with the License.
 * You may obtain a copy of the License at
 *
 *     http://www.apache.org/licenses/LICENSE-2.0
 *
 * Unless required by applicable law or agreed to in writing,
 * software distributed under the License is distributed on an
 * "AS IS" BASIS, WITHOUT WARRANTIES OR CONDITIONS OF ANY
 * KIND, either express or implied. See the License for the
 * specific language governing permissions and limitations
 * under the License.
-->

<svg version="1.1" id="join-query" xmlns="http://www.w3.org/2000/svg"  x="0px" y="0px"
	 viewBox="0 0 14 14" style="enable-background:new 0 0 14 14;" xml:space="preserve">
<path style="fill:#FF5722" d="M8.4833984,8.8616333h0.345459c0.2033081-0.2009888,0.4412842-0.3625488,0.6945801-0.5H8.9833984v-2.5h2.5v2.1741943
	c0.1730347,0.0300293,0.3383789,0.078064,0.5,0.1360474V5.3616333h-3.5v1.3771973
	c-0.3920898-0.0314941-1.4123535-0.270874-1.4685059-0.6858521C6.97052,5.7252197,6.9621582,5.3921509,6.9464111,5.0610352
	C6.9265137,4.6421509,6.9203491,4.2225952,6.8986206,3.803833C6.8865967,3.5721436,6.8226318,3.3512573,6.6932983,3.1547852
	C6.5286865,2.9046021,6.2991943,2.7617188,5.99646,2.7434692C5.9605713,2.741272,5.9250488,2.7319336,5.8894043,2.7259521
	c-0.1243286,0-0.2486572,0-0.3728027,0v-1.496521h-3.5v3.5h3.5V3.449585
	c0.1380005,0.0081177,0.2770386,0.0084839,0.4138184,0.0264282c0.1558838,0.0204468,0.258728,0.118103,0.2983398,0.2686157
	c0.0275879,0.1049194,0.0487061,0.2144165,0.0516357,0.3224487c0.012207,0.4598389,0.0078735,0.9202271,0.0272827,1.3796387
	C6.3182373,5.6970215,6.3497925,5.9485474,6.397522,6.1945801c0.0682983,0.3520508,0.2677612,0.6259155,0.5630493,0.8292847
	C6.9994507,7.0505981,7.0390625,7.0762329,7.078064,7.1022339C7.0748291,7.1110229,7.0742798,7.1210938,7.0697021,7.1235352
	c-0.4640503,0.24646-0.6714478,0.6643677-0.7161865,1.1576538C6.3094482,8.7670898,6.3168945,9.2576294,6.2982178,9.7459717
	c-0.0075073,0.1965942-0.0141602,0.394104-0.0392456,0.5889282c-0.0379639,0.2953491-0.1813354,0.4190674-0.4796143,0.4354858
	c-0.0874023,0.0047607-0.1751709,0.0023804-0.2627563,0.0032349V9.2705688h-3.5v3.5h3.5v-1.2733154
	c0.1242676,0,0.2485352,0,0.3728027,0c0.0718384-0.0100708,0.1445313-0.0162354,0.2154541-0.0308838
	c0.4393921-0.0910034,0.6669922-0.3963623,0.7453613-0.805603c0.0613403-0.3200073,0.0738525-0.6507568,0.0910034-0.9776611
	c0.0238037-0.4552002,0.0224609-0.9118042,0.0515747-1.3665771c0.0097046-0.1517334,0.0608521-0.3084717,0.1263428-0.4472656
	C7.2376709,7.6182861,8.2006226,7.4875488,8.4833984,7.484375V8.8616333z M5.0166016,4.2294312h-2.5v-2.5h2.5V4.2294312z
	 M5.0166016,12.2705688h-2.5v-2.5h2.5V12.2705688z M10.8118105,10.7705555c0,0.2349243-0.1904907,0.425415-0.4254761,0.425415
	c-0.2349243,0-0.425415-0.1904907-0.425415-0.425415c0-0.2349854,0.1904907-0.4254761,0.425415-0.4254761
	C10.6213198,10.3450794,10.8118105,10.5355701,10.8118105,10.7705555z M12.182416,11.6265125
	c0,0.1578979-0.1279297,0.2858276-0.2858276,0.2858276c-0.1578369,0-0.2858276-0.1279297-0.2858276-0.2858276
	c0-0.1578369,0.1279907-0.2858276,0.2858276-0.2858276C12.0544863,11.3406849,12.182416,11.4686756,12.182416,11.6265125z
	 M10.9627504,8.2886829c-1.508728,0-2.7318115,1.2231445-2.7318115,2.7318726c0,1.5087891,1.2230835,2.7318726,2.7318115,2.7318726
	c1.5087891,0,2.7319336-1.2230835,2.7319336-2.7318726C13.694684,9.5118275,12.4715395,8.2886829,10.9627504,8.2886829z
	 M12.6223574,11.7587147l-0.1513672,0.0195313c-0.0130615,0.0488281-0.0327759,0.0953369-0.0580444,0.1390991l0.0979004,0.1235352
	l-0.1933594,0.1951904l-0.1264648-0.098999c-0.0445557,0.0250854-0.0917969,0.0441895-0.1412964,0.0570679l-0.0193481,0.1588745
	l-0.2747803,0.0005493l-0.0194092-0.1630249c-0.0458374-0.0131836-0.0899048-0.0317993-0.1312866-0.055603l-0.1278687,0.1008911
	l-0.1946411-0.1938477l0.1016846-0.1292114c-0.0227661-0.039978-0.0405884-0.0825806-0.0534668-0.1268311l-0.1611328-0.0198975
	l-0.0005493-0.2458496l-0.1561279,0.1575928l-0.1882935-0.1473999c-0.0662231,0.0373535-0.1365356,0.0657959-0.2102051,0.0849609
	l-0.0288696,0.2364502l-0.4089355,0.0008545l-0.0289307-0.2426758c-0.0681763-0.0195923-0.1337891-0.0473022-0.1953735-0.0827637
	l-0.1902466,0.1502075l-0.2897949-0.2885132l0.1513672-0.1923218c-0.0338135-0.0595093-0.0604248-0.1229248-0.0795898-0.1887817
	l-0.2398071-0.0296631l-0.0008545-0.4089355l0.2333374-0.0278931c0.0181274-0.0715332,0.0452271-0.1401978,0.0809326-0.2047119
	l-0.1450806-0.180603l0.2852173-0.2930908l0.1825562,0.1403809C10.0091372,9.96245,10.0827456,9.931078,10.1601381,9.910387
	l0.0288696-0.2228394h0.4077148l0.0255127,0.2229004c0.0754395,0.0203857,0.1472778,0.0504761,0.2145996,0.0899658
	l0.1761475-0.1377563l0.2884521,0.289856l-0.1408691,0.1772461c0.0358276,0.0640259,0.0639648,0.1322021,0.0827637,0.2035522
	l0.2232056,0.0256958v0.4082642l-0.2252197,0.0291138c-0.0194702,0.0726318-0.0488892,0.1419067-0.0864258,0.2069702
	l0.1456909,0.1838989l-0.0991821,0.1000977l0.1242676-0.0148315c0.012207-0.0480957,0.0303955-0.0941772,0.0543823-0.1375732
	l-0.0974731-0.1213379l0.1915894-0.1968994l0.1226807,0.0942993c0.0463257-0.0274048,0.0957642-0.0485229,0.1477661-0.0623779
	l0.0194092-0.1497192h0.2739258l0.0171509,0.1497803c0.0506592,0.0136719,0.098938,0.0338745,0.144165,0.0604248
	l0.1183472-0.0925903l0.1937866,0.1947632l-0.0946045,0.1190796c0.0240479,0.0430298,0.0429688,0.0888062,0.055603,0.1367798
	l0.1499634,0.0172119V11.7587147z M11.2013979,11.4873524l-0.0324707,0.0328369l-0.000061-0.0289307L11.2013979,11.4873524z"/>
</svg>
