<?xml version="1.0" encoding="utf-8"?>

<!--
 * Copyright (c) 2018, WSO2 Inc. (http://www.wso2.org) All Rights Reserved.
 *
 * WSO2 Inc. licenses this file to you under the Apache License,
 * Version 2.0 (the "License"); you may not use this file except
 * in compliance with the License.
 * You may obtain a copy of the License at
 *
 *     http://www.apache.org/licenses/LICENSE-2.0
 *
 * Unless required by applicable law or agreed to in writing,
 * software distributed under the License is distributed on an
 * "AS IS" BASIS, WITHOUT WARRANTIES OR CONDITIONS OF ANY
 * KIND, either express or implied. See the License for the
 * specific language governing permissions and limitations
 * under the License.
-->

<svg version="1.1" id="trigger" xmlns="http://www.w3.org/2000/svg"  x="0px" y="0px"
	 viewBox="0 0 14 14" style="enable-background:new 0 0 14 14;" xml:space="preserve">
<path d="M8.6668282,7.4617777l1.5517817,0.0217109l-0.0125561,0.8569341l-1.6137323-0.022583
	C8.435111,8.5471573,8.1841679,8.7071133,7.885138,8.7071133c-0.4819183,0-0.8725886-0.3906689-0.8725886-0.8725858
	c0-0.3477254,0.2070413-0.6424379,0.5013189-0.7826881V4.8247972h0.8569374v2.3041644
	C8.4956226,7.2151518,8.6007347,7.3237944,8.6668282,7.4617777z M7.9174194,2.8019302h-0.000061v1.0714111h0.000061
	c2.1661987,0,3.9285278,1.7623289,3.9285278,3.9285886c0,2.1661992-1.7623291,3.9285893-3.9285278,3.9285893
	c-2.0964966,0-3.7994995-1.6549683-3.90802-3.7249146l1.3681641,1.3155518l0.4932251-0.5131836L3.4775391,6.5071301
	L1.0826416,8.7227678l0.4835205,0.5223999l1.3690186-1.266602c0.0951538,2.6777349,2.28125,4.8233647,4.9822388,4.8233647
	c2.7614136,0,4.999939-2.2385864,4.999939-5.0000005S10.678833,2.8019302,7.9174194,2.8019302z M10.5932894,2.8138235
	c0.2701511,0.1415758,0.4138088,0.3748195,0.4525366,0.6782429c0.0695829-0.0288527,0.1332474-0.0552683,0.1985655-0.0823612
	c-0.105444-0.7287691-0.8982849-1.1109164-1.5116615-0.7906601C9.7463665,2.6866641,9.760211,2.7552788,9.7750301,2.828779
	C10.0488701,2.6862359,10.3225832,2.6719532,10.5932894,2.8138235z M9.4713469,1.3154347
	c0.0133934,0.0666331,0.0268564,0.1336421,0.0405369,0.2016819c0.5799561-0.1818103,1.1336985-0.1363033,1.6559124,0.1669142
	c0.523591,0.304013,0.8368511,0.7649484,0.9656343,1.3559911c0.0663185-0.0275474,0.128581-0.0533946,0.1932516-0.0802469
	C12.0608568,1.6428648,10.6645288,0.8946487,9.4713469,1.3154347z M9.6052427,1.983341
	c0.0135174,0.066937,0.0271292,0.1343369,0.0414982,0.2054589c0.4309874-0.1592231,0.8465109-0.1448846,1.2465458,0.0671756
	c0.399435,0.211741,0.6445761,0.547699,0.7535839,0.9865441c0.0676165-0.0282178,0.1309071-0.0546215,0.1931524-0.0805957
	C11.6083441,2.1790931,10.542779,1.6181766,9.6052427,1.983341z" style="fill:#00BCD4;"/>
</svg>
