<?xml version="1.0" encoding="utf-8"?>

<!--
 * Copyright (c) 2018, WSO2 Inc. (http://www.wso2.org) All Rights Reserved.
 *
 * WSO2 Inc. licenses this file to you under the Apache License,
 * Version 2.0 (the "License"); you may not use this file except
 * in compliance with the License.
 * You may obtain a copy of the License at
 *
 *     http://www.apache.org/licenses/LICENSE-2.0
 *
 * Unless required by applicable law or agreed to in writing,
 * software distributed under the License is distributed on an
 * "AS IS" BASIS, WITHOUT WARRANTIES OR CONDITIONS OF ANY
 * KIND, either express or implied. See the License for the
 * specific language governing permissions and limitations
 * under the License.
-->

<svg version="1.1" id="aggregation" xmlns="http://www.w3.org/2000/svg"  x="0px"
	 y="0px" viewBox="0 0 14 14" style="enable-background:new 0 0 14 14;" xml:space="preserve">
<path style="fill:#673AB7" d="M0,0v3.5h3.5V0H0z M3,3H0.5V0.5H3V3z M0,5.3000002v3.5h3.5v-3.5H0z M3,8.1999998H0.5V5.8000002H3V8.1999998z
	 M10.5,5.2999878v3.5H14v-3.5H10.5z M13.5,8.2999878H11v-2.5h2.5V8.2999878z M0,10.5V14h3.5v-3.5H0z M3,13.5H0.5V11H3V13.5z
	 M5.2325001,1.155c0-0.3811882,0-0.7623763,0-1.155C5.430687,0,5.6290936,0,5.8274999,0
	c0.0569634,0.009593,0.1136069,0.0244875,0.1709399,0.027945c0.4832001,0.0291393,0.8494263,0.2572297,1.1122208,0.6565479
	C7.3170347,0.9980797,7.4191618,1.3506697,7.438343,1.7204165c0.0346751,0.6684036,0.0445628,1.3380663,0.0762911,2.0066581
	c0.0250807,0.5285082,0.0384965,1.0601077,0.1093011,1.5832691c0.0896401,0.6623292,0.5177035,1.0443635,1.1435647,1.0946565
	c0,0.396666,0,0.7933335,0,1.1899996c-0.4513817,0.0050387-0.7880211,0.213727-0.9771714,0.614347
	c-0.1045513,0.2214394-0.1861763,0.4716768-0.201663,0.7138233c-0.0464234,0.7258558-0.0443134,1.45469-0.0823531,2.1812515
	c-0.0273156,0.5217381-0.0472822,1.0496206-0.1451707,1.5604591c-0.1251645,0.6531811-0.4884033,1.1405659-1.1897087,1.2857513
	C6.0582333,13.9740658,5.9422154,13.9838867,5.8274999,14c-0.1983333,0-0.3966665,0-0.5949998,0
	c0-0.3850002,0-0.7700005,0-1.1549997c0.1398172-0.001421,0.2799249,0.0024376,0.4193997-0.0052223
	c0.4760389-0.0261393,0.7048597-0.2236452,0.7655277-0.6950855c0.0400081-0.3108921,0.0506325-0.6261759,0.0626202-0.9399443
	c0.0297794-0.7794771,0.0179195-1.562376,0.0882769-2.3379602c0.0714221-0.787322,0.4024014-1.4543581,1.1430631-1.8477306
	C7.7187324,7.0151567,7.7195873,6.9990377,7.724803,6.985054C7.6624904,6.943541,7.5992594,6.9026136,7.5372481,6.8599148
	c-0.471344-0.324554-0.7896676-0.7617154-0.8986764-1.3235559C6.5623837,5.1436782,6.5119901,4.7421293,6.4951324,4.3426399
	C6.4641891,3.6093488,6.4710932,2.874532,6.4515543,2.140635C6.4469638,1.9682101,6.413249,1.7933971,6.3691602,1.625942
	C6.3059125,1.3857198,6.1417856,1.2297927,5.892951,1.1971806C5.6747069,1.1685777,5.4527931,1.167972,5.2325001,1.155z"/>
</svg>
