<?xml version="1.0" encoding="utf-8"?>
<!-- Generator: Adobe Illustrator 22.0.1, SVG Export Plug-In . SVG Version: 6.00 Build 0)  -->
<svg version="1.1" id="error-stream" xmlns="http://www.w3.org/2000/svg" xmlns:xlink="http://www.w3.org/1999/xlink" x="0px"
	 y="0px" viewBox="0 0 14 14" style="enable-background:new 0 0 14 14;" xml:space="preserve">
<style type="text/css">
	.st0{fill:#0DBCD4;}
	.st1{fill:#EF4136;}
</style>
<path class="st0" d="M11.6765699,12.7797737V12.446723"/>
<g>
	<polygon class="st1" points="10.95082,10.265399 9.0211506,12.2055588 8.4939241,11.6783314 9.1265707,11.0456848 
		4.1601334,11.0456848 4.1601334,5.3200073 4.7927799,5.3200073 4.7927799,10.4130383 9.7487268,10.4130383 9.9279661,10.2337351 
		9.7803268,10.0966511 5.088058,10.0966511 5.088058,5.3200073 5.7207046,5.3200073 5.7207046,9.4640036 9.0949707,9.4640036 
		8.5044785,8.8735123 9.0317059,8.3568401 	"/>
</g>
<path class="st0" d="M14,3.9869995l-3.2886353,3.3007202L9.8191528,6.3955078l0.7839966-0.7897339H0V4.388916h11.4355469V3.9185791
	H0V2.7017212h10.9303589l-1.097229-1.097229l0.8922119-0.8922119L14,3.9869995z"/>
</svg>
