<?xml version="1.0" encoding="utf-8"?>
<!-- Generator: Adobe Illustrator 21.1.0, SVG Export Plug-In . SVG Version: 6.00 Build 0)  -->
<svg version="1.1" id="function" xmlns="http://www.w3.org/2000/svg"  x="0px" y="0px"
	 viewBox="0 0 14 14" style="enable-background:new 0 0 14 14;" xml:space="preserve">
<path style="fill:#FF5722" d="M11.6528149,0.334351c-0.5101337-0.4262117-1.3729305-0.4710017-2.2687292,0.0174445
	C8.9673033,0.5795171,8.5637226,0.9241639,8.1856012,1.378664C7.9130898,1.7119956,7.6264338,2.1815827,7.3369493,2.7732816
	C7.1323299,3.1848776,6.9692006,3.4649327,6.8499179,3.6054318C6.7457223,3.7284861,6.6335115,3.8119369,6.5165863,3.8524835
	c-0.0919375,0.0320604-0.298914,0.0702496-0.762372,0.0702496H5.5585527l-0.2036762,0.961334h1.2489324L5.4189968,9.4917736
	c-0.2927847,1.1277637-0.4743023,1.7991419-0.5398369,1.9943314c-0.1513429,0.4629869-0.3116436,0.8194208-0.4761877,1.0579863
	c-0.1579437,0.2281923-0.337575,0.4007521-0.5332363,0.5110769c-0.1395559,0.0792074-0.2725115,0.130126-0.3974519,0.1518145
	c0.0773218-0.1065531,0.1159825-0.2234783,0.1159825-0.3479481c0-0.1744442-0.07355-0.3338022-0.2126346-0.4611006
	c-0.3022141-0.2772255-0.8057475-0.2310219-1.1098478,0.0480909c-0.1720877,0.1584148-0.2626104,0.3592625-0.2626104,0.5799112
	c0,0.2649679,0.1084387,0.4931612,0.3083434,0.6544046C2.5585692,13.8925037,2.860312,14,3.2087307,14
	c0.493161,0,0.9891505-0.173502,1.473825-0.5157919c0.6171584-0.4337549,1.1951842-1.2173433,1.7185197-2.3281345
	c0.3616199-0.7732153,0.7255969-1.8783484,1.0810876-3.2861671l0.7524714-2.9858394h1.0551567l0.2611961-0.961334H8.4967737
	C8.7881441,2.9887447,8.9927635,2.3895025,9.105917,2.141979c0.2385654-0.5091909,0.5082474-0.8854265,0.8024473-1.1183342
	c0.1989613-0.1598294,0.4177246-0.237151,0.6685486-0.237151c0.0358324,0,0.0622349,0.0028288,0.082036,0.0066006
	c-0.0103722,0.0207448-0.0245161,0.0495047-0.0462036,0.087694c-0.0839224,0.1508715-0.1244698,0.2828839-0.1244698,0.4040526
	c0,0.1881177,0.0754356,0.3573766,0.2187643,0.4889176c0.2979708,0.2753402,0.834507,0.2560099,1.1324778-0.0537479
	c0.154644-0.1617154,0.2338514-0.3616198,0.2338514-0.5945277C12.073369,0.8341126,11.9319267,0.5677302,11.6528149,0.334351z
	 M10.6796942,0.7426468L10.678751,0.7407609l0.0009432,0.0009429C10.6796942,0.7417038,10.6796942,0.7421753,10.6796942,0.7426468z"
	/>
<g>
	<circle style="fill:#FF5722" cx="10.3863497" cy="10.7127962" r="0.4254456"/>
	<circle style="fill:#FF5722" cx="11.8965883" cy="11.5687685" r="0.2858276"/>
	<path style="fill:#FF5722" d="M10.9627504,8.2309389c-1.508728,0-2.7318115,1.2231445-2.7318115,2.7318726
		c0,1.5087891,1.2230835,2.7318726,2.7318115,2.7318726c1.5087891,0,2.7319336-1.2230835,2.7319336-2.7318726
		C13.694684,9.4540834,12.4715395,8.2309389,10.9627504,8.2309389z M12.6223574,11.7009706l-0.1513672,0.0195313
		c-0.0130615,0.0488281-0.0327759,0.0953369-0.0580444,0.1390991l0.0979004,0.1235352l-0.1933594,0.1951904l-0.1264648-0.098999
		c-0.0445557,0.0250854-0.0917969,0.0441895-0.1412964,0.0570679L12.0303774,12.29527l-0.2747803,0.0005493l-0.0194092-0.1630249
		c-0.0458374-0.0131836-0.0899048-0.0317993-0.1312866-0.055603l-0.1278687,0.1008911l-0.1946411-0.1938477l0.1016846-0.1292114
		c-0.0227661-0.039978-0.0405884-0.0825806-0.0534668-0.1268311l-0.1611328-0.0198975l-0.0005493-0.2458496l-0.1561279,0.1575928
		l-0.1882935-0.1473999c-0.0662231,0.0373535-0.1365356,0.0657959-0.2102051,0.0849609l-0.0288696,0.2364502l-0.4089355,0.0008545
		l-0.0289307-0.2426758c-0.0681763-0.0195923-0.1337891-0.0473022-0.1953735-0.0827637l-0.1902466,0.1502075l-0.2897949-0.2885132
		l0.1513672-0.1923218c-0.0338135-0.0595093-0.0604248-0.1229248-0.0795898-0.1887817L9.3041201,10.920392l-0.0008545-0.4089355
		l0.2333374-0.0278931c0.0181274-0.0715332,0.0452271-0.1401978,0.0809326-0.2047119l-0.1450806-0.180603l0.2852173-0.2930908
		l0.1825562,0.1403809c0.0689087-0.0408325,0.1425171-0.0722046,0.2199097-0.0928955l0.0288696-0.2228394h0.4077148
		l0.0255127,0.2229004c0.0754395,0.0203857,0.1472778,0.0504761,0.2145996,0.0899658l0.1761475-0.1377563l0.2884521,0.289856
		l-0.1408691,0.1772461c0.0358276,0.0640259,0.0639648,0.1322021,0.0827637,0.2035522l0.2232056,0.0256958v0.4082642
		l-0.2252197,0.0291138c-0.0194702,0.0726318-0.0488892,0.1419067-0.0864258,0.2069702l0.1456909,0.1838989l-0.0991821,0.1000977
		l0.1242676-0.0148315c0.012207-0.0480957,0.0303955-0.0941772,0.0543823-0.1375732l-0.0974731-0.1213379l0.1915894-0.1968994
		l0.1226807,0.0942993c0.0463257-0.0274048,0.0957642-0.0485229,0.1477661-0.0623779l0.0194092-0.1497192h0.2739258
		l0.0171509,0.1497803c0.0506592,0.0136719,0.098938,0.0338745,0.144165,0.0604248l0.1183472-0.0925903l0.1937866,0.1947632
		l-0.0946045,0.1190796c0.0240479,0.0430298,0.0429688,0.0888062,0.055603,0.1367798l0.1499634,0.0172119V11.7009706z"/>
	<polygon style="fill:#FF5722" points="11.1688662,11.4335146 11.1689272,11.4624453 11.2013979,11.4296083 	"/>
</g>
</svg>
