<?xml version="1.0" encoding="utf-8"?>

<!--
 * Copyright (c) 2018, WSO2 Inc. (http://www.wso2.org) All Rights Reserved.
 *
 * WSO2 Inc. licenses this file to you under the Apache License,
 * Version 2.0 (the "License"); you may not use this file except
 * in compliance with the License.
 * You may obtain a copy of the License at
 *
 *     http://www.apache.org/licenses/LICENSE-2.0
 *
 * Unless required by applicable law or agreed to in writing,
 * software distributed under the License is distributed on an
 * "AS IS" BASIS, WITHOUT WARRANTIES OR CONDITIONS OF ANY
 * KIND, either express or implied. See the License for the
 * specific language governing permissions and limitations
 * under the License.
-->

<svg version="1.1" id="sequence-query" xmlns="http://www.w3.org/2000/svg"  x="0px"
	 y="0px" viewBox="0 0 14 14" style="enable-background:new 0 0 14 14;" xml:space="preserve">
<path style="fill:#FF5722" d="M5.0254021,5.2779055H2.9915326v2.3607717h2.0338695V5.2779055z M0,5.8196139v2.3607717h2.0338697V5.8196139H0z
	 M1.743337,7.843133H0.2905326V6.156867H1.743337V7.843133z M8.0169344,5.8196139H5.9830651v2.3607717h2.0338693V5.8196139z
	 M11.0084677,5.2779055H8.9745979v2.3607717h2.0338697V5.2779055z M11.9661255,5.8196411v2.2891235
	c0.069519,0.0244141,0.1414185,0.0422974,0.2084961,0.0715942H14V5.8196411H11.9661255z M13.7094727,7.8431396h-1.4528198V6.1568604
	h1.4528198V7.8431396z M10.8118105,10.7128115c0,0.2349243-0.1904907,0.425415-0.4254761,0.425415
	c-0.2349243,0-0.425415-0.1904907-0.425415-0.425415c0-0.2349854,0.1904907-0.4254761,0.425415-0.4254761
	C10.6213198,10.2873354,10.8118105,10.4778261,10.8118105,10.7128115z M12.182416,11.5687685
	c0,0.1578979-0.1279297,0.2858276-0.2858276,0.2858276c-0.1578369,0-0.2858276-0.1279297-0.2858276-0.2858276
	c0-0.1578369,0.1279907-0.2858276,0.2858276-0.2858276C12.0544863,11.2829409,12.182416,11.4109316,12.182416,11.5687685z
	 M10.9627504,8.2309389c-1.508728,0-2.7318115,1.2231445-2.7318115,2.7318726c0,1.5087891,1.2230835,2.7318726,2.7318115,2.7318726
	c1.5087891,0,2.7319336-1.2230835,2.7319336-2.7318726C13.694684,9.4540834,12.4715395,8.2309389,10.9627504,8.2309389z
	 M12.6223574,11.7009706l-0.1513672,0.0195313c-0.0130615,0.0488281-0.0327759,0.0953369-0.0580444,0.1390991l0.0979004,0.1235352
	l-0.1933594,0.1951904l-0.1264648-0.098999c-0.0445557,0.0250854-0.0917969,0.0441895-0.1412964,0.0570679L12.0303774,12.29527
	l-0.2747803,0.0005493l-0.0194092-0.1630249c-0.0458374-0.0131836-0.0899048-0.0317993-0.1312866-0.055603l-0.1278687,0.1008911
	l-0.1946411-0.1938477l0.1016846-0.1292114c-0.0227661-0.039978-0.0405884-0.0825806-0.0534668-0.1268311l-0.1611328-0.0198975
	l-0.0005493-0.2458496l-0.1561279,0.1575928l-0.1882935-0.1473999c-0.0662231,0.0373535-0.1365356,0.0657959-0.2102051,0.0849609
	l-0.0288696,0.2364502l-0.4089355,0.0008545l-0.0289307-0.2426758c-0.0681763-0.0195923-0.1337891-0.0473022-0.1953735-0.0827637
	l-0.1902466,0.1502075l-0.2897949-0.2885132l0.1513672-0.1923218c-0.0338135-0.0595093-0.0604248-0.1229248-0.0795898-0.1887817
	L9.3041201,10.920392l-0.0008545-0.4089355l0.2333374-0.0278931c0.0181274-0.0715332,0.0452271-0.1401978,0.0809326-0.2047119
	l-0.1450806-0.180603l0.2852173-0.2930908l0.1825562,0.1403809c0.0689087-0.0408325,0.1425171-0.0722046,0.2199097-0.0928955
	l0.0288696-0.2228394h0.4077148l0.0255127,0.2229004c0.0754395,0.0203857,0.1472778,0.0504761,0.2145996,0.0899658
	l0.1761475-0.1377563l0.2884521,0.289856l-0.1408691,0.1772461c0.0358276,0.0640259,0.0639648,0.1322021,0.0827637,0.2035522
	l0.2232056,0.0256958v0.4082642l-0.2252197,0.0291138c-0.0194702,0.0726318-0.0488892,0.1419067-0.0864258,0.2069702
	l0.1456909,0.1838989l-0.0991821,0.1000977l0.1242676-0.0148315c0.012207-0.0480957,0.0303955-0.0941772,0.0543823-0.1375732
	l-0.0974731-0.1213379l0.1915894-0.1968994l0.1226807,0.0942993c0.0463257-0.0274048,0.0957642-0.0485229,0.1477661-0.0623779
	l0.0194092-0.1497192h0.2739258l0.0171509,0.1497803c0.0506592,0.0136719,0.098938,0.0338745,0.144165,0.0604248
	l0.1183472-0.0925903l0.1937866,0.1947632l-0.0946045,0.1190796c0.0240479,0.0430298,0.0429688,0.0888062,0.055603,0.1367798
	l0.1499634,0.0172119V11.7009706z M11.2013979,11.4296083l-0.0324707,0.0328369l-0.000061-0.0289307L11.2013979,11.4296083z
	 M5.0960488,6.9063678v0.1747804h0.516746L5.4504981,7.2434444l0.112359,0.112359l0.3495617-0.3620458L5.5628572,6.6441965
	L5.4504981,6.744071l0.1622963,0.1622968H5.0960488z M8.0875816,6.9063678v0.1747804h0.5167456L8.4420309,7.2434444
	l0.112359,0.112359l0.3495617-0.3620458L8.55439,6.6441965L8.4420309,6.744071l0.1622963,0.1622968H8.0875816z"/>
</svg>
