<?xml version="1.0" encoding="utf-8"?>

<!--
 * Copyright (c) 2018, WSO2 Inc. (http://www.wso2.org) All Rights Reserved.
 *
 * WSO2 Inc. licenses this file to you under the Apache License,
 * Version 2.0 (the "License"); you may not use this file except
 * in compliance with the License.
 * You may obtain a copy of the License at
 *
 *     http://www.apache.org/licenses/LICENSE-2.0
 *
 * Unless required by applicable law or agreed to in writing,
 * software distributed under the License is distributed on an
 * "AS IS" BASIS, WITHOUT WARRANTIES OR CONDITIONS OF ANY
 * KIND, either express or implied. See the License for the
 * specific language governing permissions and limitations
 * under the License.
-->

<svg version="1.1" id="pattern-query" xmlns="http://www.w3.org/2000/svg"  x="0px"
	 y="0px" viewBox="0 0 14 14" style="enable-background:new 0 0 14 14;" xml:space="preserve">
<path style="fill:#FF5722" d="M7.5828247,5.4603271v3.0625h1.5951538c0.3088989-0.227417,0.6607056-0.3950195,1.0432739-0.4927368V5.4603271H7.5828247z
	 M7.9597168,8.0853271v-2.1875h1.8846436v2.1875H7.9597168z M5.9102173,5.013916
	C6.3461304,3.4417725,7.670166,2.7492065,8.8375854,2.7547607c1.1716309,0.0054932,2.3209839,0.7457886,2.7626343,1.7764893
	c-0.4309692-0.0465088-0.8717041-0.0940552-1.322998-0.1427612c-0.0134277,0.213562-0.0231323,0.3682251-0.0317993,0.5064697
	c0.644165,0.0670166,1.3080444,0.1361084,1.9630737,0.2042236c0.0535889-0.6325684,0.1097412-1.2944946,0.1652832-1.9497681
	c-0.135376-0.0136719-0.2924805-0.029541-0.4605103-0.0464478c-0.020874,0.2493286-0.0432739,0.5175171-0.0668335,0.7987061
	c-1.06073-1.3849487-2.4008179-1.9569092-4.0576172-1.4838867C6.5519409,2.7709351,5.7919922,3.6447144,5.4302979,4.890686
	c0.1345825,0.0369873,0.2513428,0.0697632,0.3684692,0.1008301C5.8355713,5.0013428,5.8735352,5.0066528,5.9102173,5.013916z
	 M3.8040771,5.4518433h2.6384888v3.0625H3.8040771V5.4518433z M2.6553345,5.4518433H0.0169067v3.0625h2.6384277V5.4518433z
	 M2.2784424,8.0768433H0.3937988v-2.1875h1.8846436V8.0768433z M11.3699951,5.4603271v2.5054932
	c0.5180054,0.0686646,0.993042,0.2613525,1.3945313,0.5570068h1.2438965v-3.0625H11.3699951z M8.3060913,9.5349121
	c-0.0183716-0.2164307-0.0372925-0.4398193-0.0551758-0.651001c-0.6550293,0.0681152-1.3189087,0.137207-1.9630737,0.2042236
	c0.008667,0.1383057,0.0184326,0.2929077,0.0317993,0.5064697c0.451355-0.0487061,0.8920898-0.0962524,1.322998-0.1427612
	c-0.4416504,1.0307007-1.5910034,1.7709961-2.7626343,1.7764893c-1.1673584,0.0055542-2.4914551-0.6870117-2.9273682-2.2591553
	c-0.0366821,0.0072632-0.074646,0.0125732-0.1114502,0.0223999C1.7240601,9.022644,1.6073608,9.0554199,1.4727173,9.0924072
	c0.3616943,1.2459717,0.9281006,1.9998779,2.3585205,2.4729004c1.6567993,0.4730225,2.9968872-0.098938,4.0576172-1.4838867
	c0.0214233,0.2558594,0.0415649,0.4968872,0.060791,0.7268066C7.9732056,10.3479004,8.0998535,9.9187622,8.3060913,9.5349121z
	 M10.3948002,10.2873507c0.2349672,0,0.4254456,0.1904783,0.4254456,0.4254456s-0.1904783,0.4254456-0.4254456,0.4254456
	s-0.4254456-0.1904783-0.4254456-0.4254456S10.159833,10.2873507,10.3948002,10.2873507z M11.9050388,11.2829409
	c0.1578579,0,0.2858276,0.1279697,0.2858276,0.2858276s-0.1279697,0.2858276-0.2858276,0.2858276
	s-0.2858276-0.1279697-0.2858276-0.2858276S11.7471809,11.2829409,11.9050388,11.2829409z M10.9712009,8.2309389
	c-1.508728,0-2.7318115,1.2231445-2.7318115,2.7318726c0,1.5087891,1.2230835,2.7318726,2.7318115,2.7318726
	c1.5087891,0,2.7319336-1.2230835,2.7319336-2.7318726C13.7031345,9.4540834,12.47999,8.2309389,10.9712009,8.2309389z
	 M12.6308079,11.7009706l-0.1513672,0.0195313c-0.0130615,0.0488281-0.0327759,0.0953369-0.0580444,0.1390991l0.0979004,0.1235352
	l-0.1933594,0.1951904l-0.1264648-0.098999c-0.0445557,0.0250854-0.0917969,0.0441895-0.1412964,0.0570679L12.0388279,12.29527
	l-0.2747803,0.0005493l-0.0194092-0.1630249c-0.0458374-0.0131836-0.0899048-0.0317993-0.1312866-0.055603l-0.1278687,0.1008911
	l-0.1946411-0.1938477l0.1016846-0.1292114c-0.0227661-0.039978-0.0405884-0.0825806-0.0534668-0.1268311l-0.1611328-0.0198975
	l-0.0005493-0.2458496l-0.1561279,0.1575928l-0.1882935-0.1473999c-0.0662231,0.0373535-0.1365356,0.0657959-0.2102051,0.0849609
	l-0.0288696,0.2364502l-0.4089355,0.0008545l-0.0289307-0.2426758c-0.0681763-0.0195923-0.1337891-0.0473022-0.1953735-0.0827637
	l-0.1902466,0.1502075l-0.2897949-0.2885132l0.1513672-0.1923218c-0.0338135-0.0595093-0.0604248-0.1229248-0.0795898-0.1887817
	L9.3125706,10.920392l-0.0008545-0.4089355l0.2333374-0.0278931c0.0181274-0.0715332,0.0452271-0.1401978,0.0809326-0.2047119
	l-0.1450806-0.180603l0.2852173-0.2930908L9.948679,9.9455385c0.0689087-0.0408325,0.1425171-0.0722046,0.2199097-0.0928955
	l0.0288696-0.2228394h0.4077148l0.0255127,0.2229004c0.0754395,0.0203857,0.1472778,0.0504761,0.2145996,0.0899658
	l0.1761475-0.1377563l0.2884521,0.289856l-0.1408691,0.1772461c0.0358276,0.0640259,0.0639648,0.1322021,0.0827637,0.2035522
	l0.2232056,0.0256958v0.4082642l-0.2252197,0.0291138c-0.0194702,0.0726318-0.0488892,0.1419067-0.0864258,0.2069702
	l0.1456909,0.1838989l-0.0991821,0.1000977l0.1242676-0.0148315c0.012207-0.0480957,0.0303955-0.0941772,0.0543823-0.1375732
	l-0.0974731-0.1213379l0.1915894-0.1968994l0.1226807,0.0942993c0.0463257-0.0274048,0.0957642-0.0485229,0.1477661-0.0623779
	l0.0194092-0.1497192h0.2739258l0.0171509,0.1497803c0.0506592,0.0136719,0.098938,0.0338745,0.144165,0.0604248
	l0.1183472-0.0925903l0.1937866,0.1947632l-0.0946045,0.1190796c0.0240479,0.0430298,0.0429688,0.0888062,0.055603,0.1367798
	l0.1499634,0.0172119V11.7009706z M11.1773167,11.4335146l0.000061,0.0289307l0.0324707-0.0328369L11.1773167,11.4335146z"/>
</svg>
