<?xml version="1.0" encoding="utf-8"?>

<!--
 * Copyright (c) 2018, WSO2 Inc. (http://www.wso2.org) All Rights Reserved.
 *
 * WSO2 Inc. licenses this file to you under the Apache License,
 * Version 2.0 (the "License"); you may not use this file except
 * in compliance with the License.
 * You may obtain a copy of the License at
 *
 *     http://www.apache.org/licenses/LICENSE-2.0
 *
 * Unless required by applicable law or agreed to in writing,
 * software distributed under the License is distributed on an
 * "AS IS" BASIS, WITHOUT WARRANTIES OR CONDITIONS OF ANY
 * KIND, either express or implied. See the License for the
 * specific language governing permissions and limitations
 * under the License.
-->

<svg version="1.1" id="window" xmlns="http://www.w3.org/2000/svg"  x="0px" y="0px"
	 viewBox="0 0 14 14" style="enable-background:new 0 0 14 14;" xml:space="preserve">
<g>
	<circle style="fill:#FF5722" cx="10.3863497" cy="10.7127962" r="0.4254456"/>
	<circle style="fill:#FF5722" cx="11.8965883" cy="11.5687685" r="0.2858276"/>
	<path style="fill:#FF5722" d="M10.9627504,8.2309389c-1.508728,0-2.7318115,1.2231445-2.7318115,2.7318726
		c0,1.5087891,1.2230835,2.7318726,2.7318115,2.7318726c1.5087891,0,2.7319336-1.2230835,2.7319336-2.7318726
		C13.694684,9.4540834,12.4715395,8.2309389,10.9627504,8.2309389z M12.6223574,11.7009706l-0.1513672,0.0195313
		c-0.0130615,0.0488281-0.0327759,0.0953369-0.0580444,0.1390991l0.0979004,0.1235352l-0.1933594,0.1951904l-0.1264648-0.098999
		c-0.0445557,0.0250854-0.0917969,0.0441895-0.1412964,0.0570679L12.0303774,12.29527l-0.2747803,0.0005493l-0.0194092-0.1630249
		c-0.0458374-0.0131836-0.0899048-0.0317993-0.1312866-0.055603l-0.1278687,0.1008911l-0.1946411-0.1938477l0.1016846-0.1292114
		c-0.0227661-0.039978-0.0405884-0.0825806-0.0534668-0.1268311l-0.1611328-0.0198975l-0.0005493-0.2458496l-0.1561279,0.1575928
		l-0.1882935-0.1473999c-0.0662231,0.0373535-0.1365356,0.0657959-0.2102051,0.0849609l-0.0288696,0.2364502l-0.4089355,0.0008545
		l-0.0289307-0.2426758c-0.0681763-0.0195923-0.1337891-0.0473022-0.1953735-0.0827637l-0.1902466,0.1502075l-0.2897949-0.2885132
		l0.1513672-0.1923218c-0.0338135-0.0595093-0.0604248-0.1229248-0.0795898-0.1887817L9.3041201,10.920392l-0.0008545-0.4089355
		l0.2333374-0.0278931c0.0181274-0.0715332,0.0452271-0.1401978,0.0809326-0.2047119l-0.1450806-0.180603l0.2852173-0.2930908
		l0.1825562,0.1403809c0.0689087-0.0408325,0.1425171-0.0722046,0.2199097-0.0928955l0.0288696-0.2228394h0.4077148
		l0.0255127,0.2229004c0.0754395,0.0203857,0.1472778,0.0504761,0.2145996,0.0899658l0.1761475-0.1377563l0.2884521,0.289856
		l-0.1408691,0.1772461c0.0358276,0.0640259,0.0639648,0.1322021,0.0827637,0.2035522l0.2232056,0.0256958v0.4082642
		l-0.2252197,0.0291138c-0.0194702,0.0726318-0.0488892,0.1419067-0.0864258,0.2069702l0.1456909,0.1838989l-0.0991821,0.1000977
		l0.1242676-0.0148315c0.012207-0.0480957,0.0303955-0.0941772,0.0543823-0.1375732l-0.0974731-0.1213379l0.1915894-0.1968994
		l0.1226807,0.0942993c0.0463257-0.0274048,0.0957642-0.0485229,0.1477661-0.0623779l0.0194092-0.1497192h0.2739258
		l0.0171509,0.1497803c0.0506592,0.0136719,0.098938,0.0338745,0.144165,0.0604248l0.1183472-0.0925903l0.1937866,0.1947632
		l-0.0946045,0.1190796c0.0240479,0.0430298,0.0429688,0.0888062,0.055603,0.1367798l0.1499634,0.0172119V11.7009706z"/>
	<polygon style="fill:#FF5722" points="11.1688662,11.4335146 11.1689272,11.4624453 11.2013979,11.4296083 	"/>
</g>
<rect style="fill:#FF5722" x="0.0000305" width="1" height="14"/>
<path style="fill:#FF5722" d="M8.9465332,7.6864014h1.3966064L9.9033203,8.1262207c0.3309937-0.1237793,0.6853027-0.2006226,1.0595093-0.2006226
	c0.2418213,0,0.4740601,0.0354614,0.699585,0.0888672L12.6768799,7L9.9656372,4.2887573L9.1419678,5.1124268l1.2011719,1.2011719
	H8.9465332H5.0537109H3.6570435l1.2011719-1.2011719L4.0345459,4.2887573L1.3233032,7l2.7112427,2.7112427l0.8236694-0.8236694
	L3.6570435,7.6864014h1.3966675H8.9465332z"/>
<path style="fill:#FF5722" d="M13.000061,0v8.7241211C13.6102295,9.2796631,14,10.0726318,14,10.9628296
	c0,0.8901367-0.3897705,1.6831055-0.999939,2.2386475V14h1V0H13.000061z"/>
</svg>
