<?xml version="1.0" encoding="UTF-8" standalone="no"?>
<!--
  ~ Copyright (c) 2019, WSO2 Inc. (http://www.wso2.org) All Rights Reserved.
  ~
  ~ WSO2 Inc. licenses this file to you under the Apache License,
  ~ Version 2.0 (the "License"); you may not use this file except
  ~ in compliance with the License.
  ~ You may obtain a copy of the License at
  ~
  ~ http://www.apache.org/licenses/LICENSE-2.0
  ~
  ~ Unless required by applicable law or agreed to in writing,
  ~ software distributed under the License is distributed on an
  ~ "AS IS" BASIS, WITHOUT WARRANTIES OR CONDITIONS OF ANY
  ~ KIND, either express or implied. See the License for the
  ~ specific language governing permissions and limitations
  ~ under the License.
  -->

<!-- Generator: Adobe Illustrator 23.0.3, SVG Export Plug-In . SVG Version: 6.00 Build 0)  -->

<svg
   xmlns:dc="http://purl.org/dc/elements/1.1/"
   xmlns:cc="http://creativecommons.org/ns#"
   xmlns:rdf="http://www.w3.org/1999/02/22-rdf-syntax-ns#"
   xmlns:svg="http://www.w3.org/2000/svg"
   xmlns="http://www.w3.org/2000/svg"
   xmlns:xlink="http://www.w3.org/1999/xlink"
   xmlns:sodipodi="http://sodipodi.sourceforge.net/DTD/sodipodi-0.dtd"
   xmlns:inkscape="http://www.inkscape.org/namespaces/inkscape"
   version="1.1"
   id="siddhi-logo"
   x="0px"
   y="0px"
   viewBox="0 0 387.32032 56.753207"
   enable-background="new 0 0 200 56.192"
   xml:space="preserve"
   sodipodi:docname="logo-editor-inverse.svg"
   inkscape:version="0.92.2 5c3e80d, 2017-08-06"
   width="387.32031"
   height="56.753208"><metadata
     id="metadata43"><rdf:RDF><cc:Work
         rdf:about=""><dc:format>image/svg+xml</dc:format><dc:type
           rdf:resource="http://purl.org/dc/dcmitype/StillImage" /></cc:Work></rdf:RDF></metadata><defs
     id="defs41"><inkscape:perspective
       sodipodi:type="inkscape:persp3d"
       inkscape:vp_x="0 : 28.096 : 1"
       inkscape:vp_y="0 : 1000 : 0"
       inkscape:vp_z="200 : 28.096 : 1"
       inkscape:persp3d-origin="100 : 18.730667 : 1"
       id="perspective1424" /><linearGradient
       inkscape:collect="always"
       id="linearGradient1014"><stop
         style="stop-color:#ffffff;stop-opacity:1;"
         offset="0"
         id="stop1010" /><stop
         style="stop-color:#ffffff;stop-opacity:0;"
         offset="1"
         id="stop1012" /></linearGradient><linearGradient
       inkscape:collect="always"
       xlink:href="#linearGradient1014"
       id="linearGradient1058"
       x1="232.24139"
       y1="25.772741"
       x2="439.72781"
       y2="25.772741"
       gradientUnits="userSpaceOnUse" /></defs><sodipodi:namedview
     pagecolor="#ffffff"
     bordercolor="#666666"
     borderopacity="1"
     objecttolerance="10"
     gridtolerance="10"
     guidetolerance="10"
     inkscape:pageopacity="0"
     inkscape:pageshadow="2"
     inkscape:window-width="1359"
     inkscape:window-height="788"
     id="namedview39"
     showgrid="false"
     inkscape:zoom="0.40500001"
     inkscape:cx="332.59436"
     inkscape:cy="154.0627"
     inkscape:window-x="0"
     inkscape:window-y="0"
     inkscape:window-maximized="0"
     inkscape:current-layer="g5290"
     showguides="false" /><g
     id="g36"
     transform="translate(4.3973154,-0.05259303)"><g
       id="g4"
       transform="translate(-4.3973154,0.05259303)"><path
         d="M 25.497,55.138 H 9.93 c -2.702,0 -4.892,-2.19 -4.892,-4.892 0,-2.702 2.19,-4.892 4.892,-4.892 h 15.567 c 2.702,0 4.892,2.19 4.892,4.892 0,2.702 -2.19,4.892 -4.892,4.892 z"
         id="path2"
         inkscape:connector-curvature="0"
         style="fill:#00aaac" /></g><path
       d="m 39.755685,25.603593 c 0.163,0.647 0.259,1.321 0.259,2.018 0,2.628 -1.232,4.969 -3.144,6.49 1.195,1.269 1.933,2.972 1.933,4.848 0,3.906 -3.178,7.084 -7.084,7.084 v 8.509 c 8.598,0 15.592,-6.995 15.592,-15.592 0,-5.66 -3.032,-10.624 -7.556,-13.357 z"
       id="path6"
       style="fill:#dadada;fill-opacity:1"
       inkscape:connector-curvature="0" /><path
       d="m 31.718685,32.513593 h -13.865 c -2.702,0 -4.892,-2.19 -4.892,-4.892 0,-2.702 2.19,-4.892 4.892,-4.892 h 13.865 c 2.702,0 4.892,2.19 4.892,4.892 0,2.702 -2.19,4.892 -4.892,4.892 z"
       id="path8"
       inkscape:connector-curvature="0"
       style="fill:#00aaac" /><path
       d="m 11.194685,9.198593 h 3.8 c -0.748,-1.246 -1.187,-2.698 -1.187,-4.254 0,-1.556 0.439,-3.008 1.187,-4.25399997 h -3.8 c -8.5970004,0 -15.5920004,6.99499997 -15.5920004,15.59299997 0,5.404 2.736,10.346 7.32,13.219 l 4.518,-7.209 c -2.085,-1.307 -3.33,-3.553 -3.33,-6.009 0,-3.908 3.178,-7.086 7.0840004,-7.086 z"
       id="path10"
       style="fill:#dadada;fill-opacity:1"
       inkscape:connector-curvature="0" /><path
       d="m 37.670685,9.837593 h -15.567 c -2.702,0 -4.892,-2.19 -4.892,-4.892 0,-2.702 2.19,-4.89299997 4.892,-4.89299997 h 15.567 c 2.702,0 4.892,2.18999997 4.892,4.89199997 0,2.702 -2.19,4.893 -4.892,4.893 z"
       id="path12"
       inkscape:connector-curvature="0"
       style="fill:#00aaac" /><g
       id="g16"
       style="fill:#dadada;fill-opacity:1"
       transform="translate(-4.3973154,0.05259303)"><polygon
         points="47.213,55.138 33.094,41.018 33.094,55.138 "
         id="polygon14"
         style="fill:#dadada;fill-opacity:1" /></g><g
       id="g20"
       style="fill:#dadada;fill-opacity:1"
       transform="translate(-4.3973154,0.05259303)"><polygon
         points="0.73,32.461 14.849,18.342 14.849,32.461 "
         id="polygon18"
         style="fill:#dadada;fill-opacity:1" /></g><path
       d="m 64.085685,12.107593 c 0.013,2.715 -1.994,4.871 -5.242,4.871 -3.087,0 -5.087,-2.156 -5.075,-4.871 -0.012,-2.787 2.034,-4.883 5.162,-4.883 3.15,0 5.117,2.086 5.155,4.883 z"
       id="path22"
       style="fill:#dadada;fill-opacity:1"
       inkscape:connector-curvature="0" /><rect
       x="54.044685"
       y="24.171593"
       width="9.7659998"
       height="31.368"
       id="rect24"
       style="fill:#dadada;fill-opacity:1" /><path
       d="M 101.98068,0.69059303 V 46.169593 c 0,3.56 0.122,7.27 0.256,9.37 h -8.668995 l -0.41,-4.593 h -0.135 c -1.975,3.516 -5.774,5.298 -9.819,5.298 -7.402,0 -13.388,-6.357 -13.388,-16.106 -0.048,-10.532 6.567,-16.672 14.035,-16.672 3.876,0 6.845,1.379 8.248,3.546 h 0.129 V 0.69059303 Z M 92.227685,37.485593 c 0,-0.546 -0.021,-1.209 -0.128,-1.768 -0.556,-2.617 -2.682,-4.767 -5.653,-4.767 -4.47,0 -6.731,3.962 -6.731,8.905 0,5.279 2.6,8.614 6.663,8.614 2.773,0 5.049,-1.922 5.643,-4.674 0.161,-0.671 0.207,-1.424 0.207,-2.206 v -4.104 z"
       id="path26"
       style="fill:#b7b7b7;fill-opacity:1"
       inkscape:connector-curvature="0" /><path
       d="M 140.17868,0.69059303 V 46.169593 c 0,3.56 0.122,7.27 0.257,9.37 h -8.669 l -0.41,-4.593 h -0.135 c -1.975,3.516 -5.774,5.298 -9.819,5.298 -7.402,0 -13.388,-6.357 -13.388,-16.106 -0.048,-10.532 6.567,-16.672 14.035,-16.672 3.876,0 6.845,1.379 8.248,3.546 h 0.129 V 0.69059303 Z m -9.752,36.79499997 c 0,-0.546 -0.021,-1.209 -0.128,-1.768 -0.556,-2.617 -2.682,-4.767 -5.653,-4.767 -4.47,0 -6.731,3.962 -6.731,8.905 0,5.279 2.6,8.614 6.663,8.614 2.773,0 5.049,-1.922 5.643,-4.674 0.161,-0.671 0.207,-1.424 0.207,-2.206 v -4.104 z"
       id="path28"
       style="fill:#dadada;fill-opacity:1"
       inkscape:connector-curvature="0" /><path
       d="m 148.00368,0.69059303 h 9.766 V 27.948593 h 0.128 c 1.02,-1.372 2.271,-2.416 3.819,-3.237 1.447,-0.786 3.267,-1.245 5.075,-1.245 6.227,0 10.99,4.314 10.99,13.773 v 18.301 h -9.767 v -17.232 c 0,-4.129 -1.421,-6.951 -5.038,-6.951 -2.602,0 -4.198,1.662 -4.892,3.444 -0.245,0.585 -0.316,1.424 -0.316,2.131 v 18.607 h -9.766 V 0.69059303 Z"
       id="path30"
       style="fill:#dadada;fill-opacity:1"
       inkscape:connector-curvature="0" /><path
       d="m 195.60268,12.107593 c 0.013,2.715 -1.994,4.871 -5.242,4.871 -3.087,0 -5.087,-2.156 -5.075,-4.871 -0.012,-2.787 2.034,-4.883 5.162,-4.883 3.15,0 5.117,2.086 5.155,4.883 z"
       id="path32"
       style="fill:#b7b7b7;fill-opacity:1"
       inkscape:connector-curvature="0" /><rect
       x="185.56169"
       y="24.171593"
       width="9.7659998"
       height="31.368"
       id="rect34"
       style="fill:#b7b7b7;fill-opacity:1" /><text
       xml:space="preserve"
       style="font-style:normal;font-variant:normal;font-weight:normal;font-stretch:normal;font-size:64px;line-height:1.25;font-family:Futura;-inkscape-font-specification:Futura;letter-spacing:0px;word-spacing:0px;fill:#000000;fill-opacity:1;stroke:none"
       x="101.6687"
       y="28.035242"
       id="text5183"><tspan
         sodipodi:role="line"
         id="tspan5181"
         x="101.6687"
         y="84.705208" /></text>
</g><g
     id="g5179"
     transform="translate(4.3973154,-0.05259303)"><g
       transform="translate(-4.3973154,0.05259303)"
       id="g5143"><path
         style="fill:#00aaac"
         inkscape:connector-curvature="0"
         id="path5141"
         d="M 25.497,55.138 H 9.93 c -2.702,0 -4.892,-2.19 -4.892,-4.892 0,-2.702 2.19,-4.892 4.892,-4.892 h 15.567 c 2.702,0 4.892,2.19 4.892,4.892 0,2.702 -2.19,4.892 -4.892,4.892 z" /></g><path
       inkscape:connector-curvature="0"
       style="fill:#b7b7b7;fill-opacity:1"
       id="path5145"
       d="m 39.755685,25.603593 c 0.163,0.647 0.259,1.321 0.259,2.018 0,2.628 -1.232,4.969 -3.144,6.49 1.195,1.269 1.933,2.972 1.933,4.848 0,3.906 -3.178,7.084 -7.084,7.084 v 8.509 c 8.598,0 15.592,-6.995 15.592,-15.592 0,-5.66 -3.032,-10.624 -7.556,-13.357 z" /><path
       style="fill:#00aaac"
       inkscape:connector-curvature="0"
       id="path5147"
       d="m 31.718685,32.513593 h -13.865 c -2.702,0 -4.892,-2.19 -4.892,-4.892 0,-2.702 2.19,-4.892 4.892,-4.892 h 13.865 c 2.702,0 4.892,2.19 4.892,4.892 0,2.702 -2.19,4.892 -4.892,4.892 z" /><path
       inkscape:connector-curvature="0"
       style="fill:#b7b7b7;fill-opacity:1"
       id="path5149"
       d="m 11.194685,9.198593 h 3.8 c -0.748,-1.246 -1.187,-2.698 -1.187,-4.254 0,-1.556 0.439,-3.008 1.187,-4.25399997 h -3.8 c -8.5970004,0 -15.5920004,6.99499997 -15.5920004,15.59299997 0,5.404 2.736,10.346 7.32,13.219 l 4.518,-7.209 c -2.085,-1.307 -3.33,-3.553 -3.33,-6.009 0,-3.908 3.178,-7.086 7.0840004,-7.086 z" /><path
       style="fill:#00aaac"
       inkscape:connector-curvature="0"
       id="path5151"
       d="m 37.670685,9.837593 h -15.567 c -2.702,0 -4.892,-2.19 -4.892,-4.892 0,-2.702 2.19,-4.89299997 4.892,-4.89299997 h 15.567 c 2.702,0 4.892,2.18999997 4.892,4.89199997 0,2.702 -2.19,4.893 -4.892,4.893 z" /><g
       transform="translate(-4.3973154,0.05259303)"
       style="fill:#b7b7b7;fill-opacity:1"
       id="g5155"><polygon
         style="fill:#b7b7b7;fill-opacity:1"
         id="polygon5153"
         points="47.213,55.138 33.094,41.018 33.094,55.138 " /></g><g
       transform="translate(-4.3973154,0.05259303)"
       style="fill:#b7b7b7;fill-opacity:1"
       id="g5159"><polygon
         style="fill:#b7b7b7;fill-opacity:1"
         id="polygon5157"
         points="14.849,32.461 0.73,32.461 14.849,18.342 " /></g><path
       inkscape:connector-curvature="0"
       style="fill:#b7b7b7;fill-opacity:1"
       id="path5161"
       d="m 64.085685,12.107593 c 0.013,2.715 -1.994,4.871 -5.242,4.871 -3.087,0 -5.087,-2.156 -5.075,-4.871 -0.012,-2.787 2.034,-4.883 5.162,-4.883 3.15,0 5.117,2.086 5.155,4.883 z" /><rect
       style="fill:#b7b7b7;fill-opacity:1"
       id="rect5163"
       height="31.368"
       width="9.7659998"
       y="24.171593"
       x="54.044685" /><path
       inkscape:connector-curvature="0"
       style="fill:#b7b7b7;fill-opacity:1"
       id="path5167"
       d="M 140.17868,0.69059303 V 46.169593 c 0,3.56 0.122,7.27 0.257,9.37 h -8.669 l -0.41,-4.593 h -0.135 c -1.975,3.516 -5.774,5.298 -9.819,5.298 -7.402,0 -13.388,-6.357 -13.388,-16.106 -0.048,-10.532 6.567,-16.672 14.035,-16.672 3.876,0 6.845,1.379 8.248,3.546 h 0.129 V 0.69059303 Z m -9.752,36.79499997 c 0,-0.546 -0.021,-1.209 -0.128,-1.768 -0.556,-2.617 -2.682,-4.767 -5.653,-4.767 -4.47,0 -6.731,3.962 -6.731,8.905 0,5.279 2.6,8.614 6.663,8.614 2.773,0 5.049,-1.922 5.643,-4.674 0.161,-0.671 0.207,-1.424 0.207,-2.206 v -4.104 z" /><path
       inkscape:connector-curvature="0"
       style="fill:#b7b7b7;fill-opacity:1"
       id="path5169"
       d="m 148.00368,0.69059303 h 9.766 V 27.948593 h 0.128 c 1.02,-1.372 2.271,-2.416 3.819,-3.237 1.447,-0.786 3.267,-1.245 5.075,-1.245 6.227,0 10.99,4.314 10.99,13.773 v 18.301 h -9.767 v -17.232 c 0,-4.129 -1.421,-6.951 -5.038,-6.951 -2.602,0 -4.198,1.662 -4.892,3.444 -0.245,0.585 -0.316,1.424 -0.316,2.131 v 18.607 h -9.766 V 0.69059303 Z" /></g><g
     id="g5267"
     style="fill:#b7b7b7;fill-opacity:1"
     transform="translate(0,-0.33216847)"><g
       id="g5290"
       transform="translate(-2.4691358,-61.419752)"><path
         inkscape:connector-curvature="0"
         style="fill:#b7b7b7;fill-opacity:1"
         id="path5165"
         d="m 292.7182,62.951132 v 45.478998 c 0,3.56 0.122,7.27 0.256,9.37 h -8.66899 l -0.41,-4.593 h -0.135 c -1.975,3.516 -5.774,5.298 -9.819,5.298 -7.402,0 -13.388,-6.357 -13.388,-16.106 -0.048,-10.531999 6.567,-16.671999 14.035,-16.671999 3.876,0 6.845,1.379 8.248,3.546 h 0.129 V 62.951132 Z m -9.75299,36.794999 c 0,-0.546 -0.021,-1.209 -0.128,-1.768 -0.556,-2.617 -2.682,-4.767 -5.653,-4.767 -4.47,0 -6.731,3.962 -6.731,8.904999 0,5.279 2.6,8.614 6.663,8.614 2.773,0 5.049,-1.922 5.643,-4.674 0.161,-0.671 0.207,-1.424 0.207,-2.206 v -4.103999 z" /><path
         inkscape:connector-curvature="0"
         style="fill:#b7b7b7;fill-opacity:1"
         id="path5171"
         d="m 312.20927,74.804619 c 0.013,2.715 -1.994,4.871 -5.242,4.871 -3.087,0 -5.087,-2.156 -5.075,-4.871 -0.012,-2.787 2.034,-4.883 5.162,-4.883 3.15,0 5.117,2.086 5.155,4.883 z" /><rect
         style="fill:#b7b7b7;fill-opacity:1"
         id="rect5173"
         height="31.368"
         width="9.7659998"
         y="86.103188"
         x="302.16827" /><path
         style="fill:#b7b7b7;fill-opacity:1;stroke-width:1.32204151"
         d="m 321.88906,63.103482 v 8.009766 h -2.5293 v 3.640625 2 2 h 2.5293 V 117.9277 h 9.76563 V 78.753873 h 3.82226 v -3.640625 -2 -2 h -3.82226 v -8.009766 z"
         id="rect5205"
         inkscape:connector-curvature="0" /><path
         style="fill:#b7b7b7;fill-opacity:1"
         d="m 383.97695,85.101529 c -1.39583,0 -2.60416,0.260417 -3.625,0.78125 -0.95395,0.476977 -2.04429,1.355083 -3.26367,2.609375 v -3.314453 h -9.76758 v 31.367189 h 9.76758 V 97.873014 c 0.54637,-3.969001 2.40284,-5.958985 5.57617,-5.958985 1.27084,0 2.57292,0.479167 3.90625,1.4375 l 3.21875,-6.4375 c -2.02083,-1.208333 -3.95833,-1.8125 -5.8125,-1.8125 z"
         id="rect5223"
         inkscape:connector-curvature="0" /><path
         style="font-style:normal;font-variant:normal;font-weight:500;font-stretch:normal;font-size:67.38962555px;line-height:1.25;font-family:Futura;-inkscape-font-specification:'Futura Medium';letter-spacing:0px;word-spacing:0px;fill:#b7b7b7;fill-opacity:1;stroke:none;stroke-width:1.17531955"
         d="m 221.67031,63.812467 v 2.480469 1.0625 48.248044 1.70508 0.9375 h 2.49181 30.62693 0.0535 v -0.9375 -1.70508 -4.72656 -1.15625 -0.95898 h -0.0535 -22.25112 V 93.515592 h 21.60384 V 91.841764 86.146451 85.792936 84.253873 H 232.53793 V 74.199186 h 22.25112 0.0535 v -2.798829 -4.044921 -1.0625 -2.480469 h -0.0535 -30.62693 z"
         id="text5209"
         inkscape:connector-curvature="0" /><path
         style="font-style:normal;font-variant:normal;font-weight:normal;font-stretch:normal;font-size:54.56182861px;line-height:1.25;font-family:Futura;-inkscape-font-specification:Futura;letter-spacing:0px;word-spacing:0px;fill:#b7b7b7;fill-opacity:1;stroke:none;stroke-width:0.85252857"
         d="m 349.71523,86.212858 c -3.34859,0 -6.18745,1.511628 -8.51757,4.537109 -2.33013,3.025481 -3.4961,6.694458 -3.4961,11.007813 0,4.57911 1.14195,8.38272 3.42578,11.4082 2.28384,3.06637 5.11664,4.59961 8.4961,4.59961 3.41032,0 6.28725,-1.50277 8.63281,-4.50781 2.33013,-3.02548 3.49609,-6.77701 3.49609,-11.25391 0,-4.436006 -1.15796,-8.17673 -3.47265,-11.222653 -2.34556,-3.045923 -5.20043,-4.568359 -8.56446,-4.568359 z m 0.002,7.367187 c 1.80136,0 3.25149,0.793049 4.35156,2.380859 1.08632,1.569348 1.63086,3.665376 1.63086,6.287106 0,2.62174 -0.54454,4.71777 -1.63086,6.28711 -1.08632,1.56935 -2.53644,2.35352 -4.35156,2.35352 -1.80137,0 -3.25149,-0.79305 -4.35157,-2.38086 -1.07257,-1.56935 -1.60937,-3.70285 -1.60937,-6.39844 0,-2.510954 0.55032,-4.560625 1.65039,-6.148436 1.10007,-1.58781 2.53668,-2.380859 4.31055,-2.380859 z"
         id="text5217"
         inkscape:connector-curvature="0" /></g></g></svg>